<svg width="116" height="196" viewBox="0 0 116 196" fill="none" xmlns="http://www.w3.org/2000/svg">
<path d="M7.40062 0.0920881H11.2106C31.8006 0.0920881 52.3806 0.292088 72.9606 0.00208807C82.4106 -0.137912 92.4406 6.77209 94.9306 17.7121C95.4306 19.9021 95.6206 22.2121 95.6306 24.4721C95.6906 38.4221 95.6406 52.3821 95.6706 66.3321C95.6806 72.2521 94.2306 77.6921 90.5206 82.3821C85.8506 88.2921 79.5706 91.0621 72.1706 91.1021C51.3906 91.1921 30.6006 91.1321 9.82062 91.1221C9.05062 91.1221 8.29062 90.9721 7.39062 90.8821V0.0920881H7.40062ZM25.5806 72.4321C26.5906 72.4321 27.2806 72.4321 27.9606 72.4321C42.5106 72.4321 57.0606 72.4321 71.6006 72.4321C75.9206 72.4321 77.6206 70.6821 77.6306 66.2321C77.6406 52.3721 77.5406 38.5221 77.7006 24.6621C77.7406 21.2321 75.3906 18.2321 71.2606 18.2721C56.8106 18.4121 42.3606 18.3221 27.9106 18.3321C27.1506 18.3321 26.4006 18.4621 25.5706 18.5321V72.4221L25.5806 72.4321Z" fill="white"/>
<path d="M71.99 97.7317C82.3 130.162 92.62 162.602 103 195.252H84.91C78.78 176.742 72.63 158.202 66.32 139.152C61.28 146.912 56.52 154.252 51.49 162.002C46.5 154.322 41.75 147.002 36.63 139.112C30.34 158.152 24.25 176.572 18.1 195.172H0C10.3 162.592 20.67 130.132 31.19 97.0117C38.09 107.672 44.66 117.832 51.48 128.362C58.22 117.952 64.75 107.862 71.29 97.7717C71.53 97.7517 71.76 97.7417 72 97.7217L71.99 97.7317Z" fill="white"/>
<path d="M115.11 72.142C109.53 69.312 104.24 66.672 99.0097 63.912C98.3797 63.582 98.0797 62.562 97.7297 61.812C97.5797 61.482 97.6997 61.032 97.6997 60.632C97.6997 50.142 97.7397 39.652 97.6697 29.152C97.6597 27.352 98.1597 26.312 99.8597 25.492C104.91 23.032 109.85 20.362 114.87 17.752C115.52 20.072 115.73 67.412 115.12 72.142H115.11Z" fill="white"/>
</svg>
