<svg width="90" height="55" viewBox="0 0 90 55" fill="none" xmlns="http://www.w3.org/2000/svg">
<g clip-path="url(#clip0_29_7137)">
<path d="M89.4985 7.91463L45.0002 0L0.501953 7.91463V47.4878L45.0002 55.4024L89.4985 47.4878V7.91463ZM45.0002 48.561L7.24411 41.8537V13.5488L45.0002 6.84146L82.7563 13.5488V41.8537L45.0002 48.561ZM26.7964 16.2317L20.3239 39.3049H13.5817C13.5817 39.3049 17.627 25.0854 18.0316 24.0122C18.4361 22.6707 16.5483 23.3415 16.5483 23.3415H14.3908L15.3347 19.7195C17.2225 19.7195 21.2678 18.1098 22.4814 16.3659H26.7964V16.2317ZM62.5298 26.9634C65.2267 26.9634 66.9797 25.7561 67.6539 23.0732L68.8675 18.7805C69.272 17.439 69.1371 16.5 68.7326 15.8293C68.1932 15.1585 67.2493 14.8902 65.9009 14.8902C63.204 14.8902 61.4511 16.0976 60.7769 18.7805L59.5633 23.0732C59.1587 24.4146 59.2936 25.3537 59.6981 26.0244C60.2375 26.561 61.1814 26.9634 62.5298 26.9634ZM63.0692 23.6098L64.5525 18.1098C64.8222 17.3049 65.0918 17.3049 65.2267 17.3049C65.3615 17.3049 65.3615 17.3049 65.3615 17.439C65.3615 17.439 65.4964 17.7073 65.3615 18.1098L63.8783 23.6098C63.6086 24.4146 63.3389 24.4146 63.204 24.4146C63.0692 24.4146 63.0692 24.4146 63.0692 24.2805C63.0692 24.2805 62.9344 24.1463 63.0692 23.6098ZM74.8006 14.4878H77.7671L61.1814 41.0488H58.2148L74.8006 14.4878ZM41.3594 16.7683C40.4155 15.561 38.7974 15.0244 36.3702 15.0244C34.0779 15.0244 28.6842 15.6951 26.9312 22.2683L23.695 33.8049C23.1556 35.9512 23.2905 37.561 24.0995 38.7683C25.0434 39.9756 26.7964 40.6463 29.2236 40.6463C34.0779 40.6463 37.1793 38.3659 38.3929 33.939L41.6291 22.4024C42.4382 19.7195 42.3033 17.9756 41.3594 16.7683ZM35.4263 21.1951L31.7856 34.4756C31.5159 35.4146 31.1114 35.8171 30.572 35.8171C30.4371 35.8171 30.3023 35.6829 30.1675 35.6829C30.0326 35.4146 30.0326 35.0122 30.1675 34.4756L33.8082 21.1951C34.0779 20.2561 34.4824 19.8537 35.0218 19.8537C35.1567 19.8537 35.4263 19.9878 35.4263 20.1219C35.5612 20.1219 35.5612 20.5244 35.4263 21.1951ZM73.4521 28.439C70.7553 28.439 69.0023 29.6463 68.3281 32.3293L67.1145 36.6219C66.71 37.9634 66.8448 38.9024 67.2493 39.5732C67.7887 40.2439 68.7326 40.5122 70.081 40.5122C72.7779 40.5122 74.5309 39.3049 75.2051 36.6219L76.4187 32.3293C76.8232 30.9878 76.6884 30.0488 76.2838 29.378C75.8793 28.8415 74.9354 28.439 73.4521 28.439ZM73.0476 31.7927L71.5643 37.2927C71.2946 38.0976 71.025 38.0976 70.8901 38.0976C70.7553 38.0976 70.7553 38.0976 70.7553 37.9634C70.7553 37.9634 70.6204 37.6951 70.7553 37.2927L72.2385 31.7927C72.5082 30.9878 72.7779 30.9878 72.9128 30.9878C73.0476 30.9878 73.0476 30.9878 73.0476 31.122C73.0476 31.122 73.1824 31.2561 73.0476 31.7927ZM57.8103 16.7683C56.8664 15.561 55.2483 15.0244 52.8211 15.0244C50.5288 15.0244 45.1351 15.6951 43.3821 22.2683L40.1459 33.8049C39.6065 35.9512 39.7413 37.561 40.5504 38.7683C41.4943 39.9756 43.2472 40.6463 45.6744 40.6463C50.5288 40.6463 53.6302 38.3659 54.8438 33.939L58.08 22.4024C58.8891 19.7195 58.7542 17.9756 57.8103 16.7683ZM51.8772 21.1951L48.2365 34.4756C47.9668 35.4146 47.5622 35.8171 47.0229 35.8171C46.888 35.8171 46.7532 35.6829 46.6183 35.6829C46.4835 35.4146 46.4835 35.0122 46.6183 34.4756L50.2591 21.1951C50.5288 20.2561 50.9333 19.8537 51.4727 19.8537C51.6075 19.8537 51.8772 19.9878 51.8772 20.1219C52.0121 20.1219 52.0121 20.5244 51.8772 21.1951Z" fill="white"/>
</g>
<defs>
<clipPath id="clip0_29_7137">
<rect width="90" height="55" fill="white"/>
</clipPath>
</defs>
</svg>
