<?xml version="1.0" encoding="UTF-8"?>
<svg xmlns="http://www.w3.org/2000/svg" viewBox="0 0 100 50">
  <defs>
    <!-- mask: white = visible, black = hidden -->
    <mask id="ring-hole">
      <rect width="100" height="50" fill="white"/>
      <!-- punch out the inner oval so only the ring edge remains -->
      <path fill="black" d="M94.9,25c0,2.3-.9,4.6-2.7,6.8-2.1,2.6-5.3,4.9-9.5,6.9-8.5,4.1-20.1,6.3-32.7,6.3s-17.1-1.1-24.4-3.3c-7-2.1-12.6-4.9-16.2-8.3-2-1.8-4.3-4.8-4.3-8.4s2.3-6.5,4.3-8.4c3.6-3.4,9.2-6.3,16.2-8.3,7.3-2.1,15.7-3.3,24.4-3.3s17.1,1.1,24.4,3.3c7,2.1,12.6,4.9,16.2,8.3,2,1.8,4.3,4.8,4.3,8.4Z"/>
    </mask>
  </defs>
  <!-- ring: outer oval clipped by mask so inner area is cut out -->
  <path fill="black" mask="url(#ring-hole)" d="M97.4,25c0-3.5-1.8-7.1-5.1-10.2-3.9-3.7-9.9-6.7-17.2-8.9-7.5-2.2-16.2-3.4-25.1-3.4s-17.6,1.2-25.1,3.4c-7.4,2.2-13.3,5.2-17.2,8.9-3.3,3.1-5.1,6.6-5.1,10.2s1.8,7.1,5.1,10.2c3.9,3.7,9.9,6.7,17.2,8.9,7.5,2.2,16.2,3.4,25.1,3.4,12.9,0,24.9-2.3,33.7-6.5,8.9-4.2,13.7-9.9,13.7-15.9h0Z"/>
  <!-- copyright mark -->
  <path fill="black" d="M85.6,33.9l-.3-.4h-.2v.4h-.2v-1h.4c.3,0,.4,0,.4.3s0,.3-.3.3l.3.5h-.2,0ZM85.4,32.6c-.4,0-.8.3-.8.8s.3.8.8.8.7-.3.7-.8-.3-.8-.7-.8ZM85.6,33.2h-.4v.3h.2s.2,0,.2-.2h0ZM86.3,33.4c0-.6-.4-1-1-1s-1,.4-1,1,.4,1,1,1,1-.4,1-1Z"/>
  <!-- L -->
  <path fill="black" d="M83.7,29.7h-6.6v-14.1h-7.3v18.7h13.9v-4.6Z"/>
  <!-- L -->
  <path fill="black" d="M68.2,29.7h-6.6v-14.1h-7.3v18.7h13.9v-4.6Z"/>
  <!-- E -->
  <path fill="black" d="M52.2,15.6h-14.7v18.7h14.7v-4.7h-7.4v-3h7.4v-3.4h-7.4v-2.7h7.4v-4.9Z"/>
  <!-- B -->
  <path fill="black" d="M36,28.7c0-1.1-.9-2-1.3-2.4-.7-.7-2.2-1.5-2.2-1.5,0,0,1.2-.5,2-1.2.7-.7,1.1-1.6,1.1-3.3s-.7-3-2.1-3.9c-1.1-.7-3.1-.7-4.8-.7h-11.2v18.7h13.8s2.1,0,3-.6c.8-.5,1.2-1,1.5-1.7.4-1.2.4-2,.3-3.3h0Z"/>
</svg>
