<?xml version="1.0" encoding="UTF-8"?>
<svg id="Layer_1" xmlns="http://www.w3.org/2000/svg" version="1.1" viewBox="0 0 55 55">
  <!-- Generator: Adobe Illustrator 29.3.1, SVG Export Plug-In . SVG Version: 2.1.0 Build 151)  -->
  <defs>
    <style>
      .st0 {
        fill: none;
      }
      .st1 {
        fill: #fff;
      }
    </style>
  </defs>
  <path d="M43.8,27.5c0,9-7.3,16.3-16.3,16.3v-16.3h16.3ZM27.5,11.2v16.3H11.2c0-9,7.3-16.3,16.3-16.3Z"/>
  <path class="st0" d="M27.5,11.2c9,0,16.3,7.3,16.3,16.3h-16.3V11.2ZM11.2,27.5h16.3v16.3c-9,0-16.3-7.3-16.3-16.3Z"/>
  <path class="st1" d="M27.5,11.2v.9c8.5,0,15.4,6.9,15.4,15.4h.9c0-9-7.3-16.3-16.3-16.3ZM27.5,42.9c-8.5,0-15.4-6.9-15.4-15.4h-.9c0,9,7.3,16.3,16.3,16.3M27.5,0C12.3,0,0,12.3,0,27.5s12.3,27.5,27.5,27.5,27.5-12.3,27.5-27.5S42.7,0,27.5,0ZM53.2,27.5c0,14.2-11.5,25.7-25.7,25.7S1.8,41.7,1.8,27.5,13.3,1.8,27.5,1.8s25.7,11.5,25.7,25.7Z"/>
  <path class="st1" d="M15.7,14.2c.9-.9,1.4-2,.5-3-.5-.6-1.3-.7-1.9-.4h0s0,0,0,0c0-.3.2-1.1-.6-1.7-.3-.3-.8-.4-1.2-.3-.8,0-1.5.6-3.2,2.6-.5.6-1.3,1.5-1.7,2.1l4.7,4.5c1.6-1.7,2.2-2.4,3.5-3.7ZM9.6,13.1c1-1.2,2-2.2,2.4-2.6.1-.1.3-.3.5-.3.3,0,.6.1.7.5,0,.3-.1.6-.4.9-.5.6-2.4,2.5-2.4,2.5l-.9-.9ZM11.4,14.9s1.8-1.9,2.4-2.5c.2-.2.4-.4.5-.5.2-.1.4-.1.6,0,.2.1.3.4.2.6,0,.3-.3.5-.5.7-.2.3-2.4,2.5-2.4,2.5l-1-.9ZM28,8.9l1.5-3.4v-.3c0,0,0,.3,0,.3l.2,4.5c.5,0,1.1.1,1.6.2l-.2-6.7c-.8,0-1.5-.1-2.3-.2l-1.5,3.7v.3c0,0-.1-.3-.1-.3l-1.5-3.7c-.8,0-1.5,0-2.3.2l-.2,6.7c.5,0,1.1-.2,1.6-.2l.2-4.5v-.3s0,.3,0,.3l1.5,3.4h1.4ZM40.7,15.9c.4.4.9,1,1.2,1.4l5.6-3.5c-.3-.4-.7-.9-1.1-1.3l-3.5,2.3-.2.2.2-.3,1.6-3.1-1.1-1.1-3.1,1.5-.3.2.2-.2,2.3-3.5c-.4-.3-.8-.7-1.3-1l-3.5,5.5c.4.3,1,.8,1.4,1.2l3.3-1.7.2-.2-.2.2-1.7,3.3Z"/>
</svg>