<svg width="143" height="55" viewBox="0 0 143 55" fill="none" xmlns="http://www.w3.org/2000/svg">
<path d="M66.9551 49.3662C67.6907 49.3662 68.2808 49.5038 68.7012 49.7705C69.1133 50.0373 69.3232 50.4089 69.3232 50.8857C69.3232 51.1605 69.2511 51.3788 69.0977 51.5566C68.9441 51.7345 68.7093 51.8722 68.3779 51.9854C68.7658 52.0743 69.0645 52.2359 69.2666 52.4541C69.4687 52.6804 69.5742 52.9554 69.5742 53.2949C69.5741 53.8283 69.3393 54.2407 68.8867 54.5479C68.426 54.8468 67.7872 55 66.9629 55C66.1385 55 65.5078 54.8469 65.0391 54.5479C64.5784 54.2407 64.3438 53.8283 64.3438 53.2949C64.3438 52.9635 64.4415 52.6887 64.6436 52.4785C64.8436 52.2704 65.1542 52.1092 65.584 51.9805C65.5883 51.9819 65.5924 51.9839 65.5967 51.9854V51.9766C65.5924 51.9778 65.5882 51.9792 65.584 51.9805C65.2512 51.8679 65.0045 51.7237 64.8369 51.5322C64.6673 51.3383 64.5781 51.1038 64.5781 50.8291C64.5781 50.3846 64.7884 50.0285 65.2168 49.7617C65.6371 49.5031 66.2195 49.3662 66.9551 49.3662ZM73.2197 49.3662C73.9553 49.3662 74.5455 49.5038 74.9658 49.7705C75.378 50.0373 75.5879 50.4089 75.5879 50.8857C75.5879 51.1605 75.5158 51.3788 75.3623 51.5566C75.2087 51.7345 74.974 51.8722 74.6426 51.9854C75.0304 52.0743 75.3292 52.2359 75.5312 52.4541C75.7333 52.6804 75.8389 52.9554 75.8389 53.2949C75.8388 53.8283 75.6039 54.2407 75.1514 54.5479C74.6906 54.8468 74.0518 55 73.2275 55C72.4032 55 71.7725 54.8469 71.3037 54.5479C70.8431 54.2407 70.6085 53.8282 70.6084 53.2949C70.6084 52.9635 70.7061 52.6887 70.9082 52.4785C71.1083 52.2704 71.4189 52.1092 71.8486 51.9805C71.8529 51.9819 71.857 51.9839 71.8613 51.9854V51.9766C71.8571 51.9778 71.8529 51.9792 71.8486 51.9805C71.5158 51.8679 71.2691 51.7237 71.1016 51.5322C70.932 51.3383 70.8438 51.1038 70.8438 50.8291C70.8438 50.3846 71.0531 50.0285 71.4814 49.7617C71.9018 49.5031 72.4842 49.3662 73.2197 49.3662ZM63.293 49.6006C63.1962 49.6248 63.1319 49.6492 63.0996 49.6895C63.0673 49.7298 63.0508 49.8024 63.0508 49.9072V54.4668C63.0508 54.5718 63.0673 54.6444 63.0996 54.6768C63.132 54.7091 63.1968 54.7414 63.3018 54.7656V54.9033H61.6279L61.6123 54.8867V54.75C61.7172 54.7258 61.7819 54.6927 61.8223 54.6523C61.8545 54.6119 61.8701 54.547 61.8701 54.4502V51.0234L61.5146 51.1123C61.5125 51.1123 61.4974 51.1126 61.4824 51.1201C61.3371 51.1524 61.2482 51.2493 61.2158 51.3945H61.0781V49.9482H61.2158C61.2319 50.0368 61.2559 50.1014 61.2881 50.1338C61.3123 50.1661 61.3536 50.1904 61.4102 50.1904H61.4502C61.4664 50.1904 61.4911 50.1829 61.5234 50.1748L61.8789 50.0859V49.8994C61.8789 49.7945 61.8626 49.7299 61.8223 49.6895C61.7899 49.6491 61.717 49.6168 61.6201 49.6006V49.4707H63.293V49.6006ZM80.8584 49.5928C80.7614 49.617 80.6886 49.6412 80.6562 49.6816C80.624 49.7221 80.6074 49.7946 80.6074 49.8994V53.0605H80.8828C80.9797 53.0605 81.0524 53.044 81.0928 53.0117C81.1332 52.9794 81.1655 52.9144 81.1816 52.8174H81.3193V54.2158H81.1816C81.1574 54.1109 81.1332 54.046 81.0928 54.0137C81.0524 53.9815 80.9796 53.9658 80.8828 53.9658H80.6074V54.4502C80.6074 54.5553 80.6239 54.6288 80.6562 54.6611C80.6887 54.6934 80.7538 54.7258 80.8506 54.75V54.8867H79.25V54.75C79.355 54.7258 79.4276 54.6927 79.46 54.6523C79.4922 54.6119 79.5088 54.547 79.5088 54.4502V53.9658H76.5498C76.4451 53.9658 76.3725 53.9816 76.332 54.0137C76.2917 54.046 76.2674 54.111 76.2432 54.2158H76.1133V53.0283L78.8857 49.9883C78.9342 49.9398 78.9672 49.891 78.9834 49.8506C78.9994 49.8105 79.0068 49.7704 79.0068 49.7383C79.0068 49.698 78.9909 49.6656 78.9668 49.6494C78.9426 49.6333 78.8861 49.6089 78.8135 49.5928V49.4629H80.8584V49.5928ZM66.9795 52.4297C66.5431 52.4297 66.1952 52.502 65.9365 52.6475C65.6859 52.793 65.5566 52.9955 65.5566 53.2461C65.5566 53.5128 65.6781 53.7229 65.9287 53.8604C66.1712 53.9977 66.5269 54.0703 66.9795 54.0703C67.4321 54.0703 67.7878 53.9978 68.0303 53.8604C68.2727 53.7229 68.3936 53.5128 68.3936 53.2461C68.3936 52.9955 68.2643 52.801 68.0137 52.6475C67.7631 52.5022 67.4157 52.4297 66.9795 52.4297ZM73.2441 52.4297C72.8077 52.4297 72.4598 52.502 72.2012 52.6475C71.9506 52.793 71.8213 52.9955 71.8213 53.2461C71.8213 53.5128 71.9428 53.7229 72.1934 53.8604C72.4359 53.9977 72.7915 54.0703 73.2441 54.0703C73.6968 54.0703 74.0524 53.9978 74.2949 53.8604C74.5374 53.7229 74.6582 53.5128 74.6582 53.2461C74.6582 52.9955 74.5289 52.801 74.2783 52.6475C74.0278 52.5022 73.6803 52.4297 73.2441 52.4297ZM77.2207 53.0684H79.5322V50.5547L77.2207 53.0684ZM66.9629 51.5244H66.9717C66.9702 51.5244 66.9683 51.5234 66.9668 51.5234C66.9656 51.5234 66.9641 51.5244 66.9629 51.5244ZM73.2197 51.5244H73.2275C73.2259 51.5244 73.2243 51.5234 73.2227 51.5234L73.2197 51.5244ZM66.9629 50.1982C66.5912 50.1983 66.3005 50.2636 66.0742 50.3848C65.848 50.514 65.7345 50.6753 65.7344 50.8691C65.7344 51.0792 65.8395 51.2413 66.0576 51.3545C66.267 51.4672 66.5729 51.523 66.9668 51.5234C67.3529 51.5231 67.6587 51.4672 67.8682 51.3545C68.0783 51.2413 68.1836 51.0793 68.1836 50.8691C68.1834 50.6593 68.0705 50.5059 67.8525 50.3848C67.6343 50.2635 67.3347 50.1982 66.9629 50.1982ZM73.2197 50.1982C72.8481 50.1983 72.5573 50.2636 72.3311 50.3848C72.1049 50.514 71.9914 50.6753 71.9912 50.8691C71.9912 51.0793 72.0962 51.2413 72.3145 51.3545C72.5237 51.4672 72.8291 51.5229 73.2227 51.5234C73.6093 51.5232 73.9153 51.4674 74.125 51.3545C74.3352 51.2413 74.4404 51.0793 74.4404 50.8691C74.4403 50.6593 74.3272 50.5059 74.1094 50.3848C73.8911 50.2635 73.5916 50.1982 73.2197 50.1982ZM51.4102 34.6299H51.0625C51.0059 34.3793 50.9417 34.209 50.8447 34.1201C50.7478 34.0393 50.602 33.9913 50.4082 33.9912H41.4834V37.0547H47.1016C47.3845 37.0547 47.5624 37.0142 47.6514 36.9414C47.7402 36.8605 47.813 36.6908 47.8857 36.416H48.2256V39.957H47.8857C47.8292 39.7064 47.7562 39.5362 47.6592 39.4473C47.554 39.3666 47.3761 39.3184 47.1016 39.3184H41.4834V42.9561H50.4561V42.9639C50.739 42.9639 50.9176 42.9236 51.0146 42.8428C51.1035 42.7619 51.1756 42.5918 51.2402 42.3252H51.5801V46.1328H51.2402C51.1756 45.8743 51.095 45.6964 50.998 45.6074C50.893 45.5104 50.7147 45.4697 50.4561 45.4697H37.7568V45.1221C38.0317 45.0493 38.2183 44.9681 38.291 44.8711C38.3716 44.766 38.4121 44.6046 38.4121 44.3545V32.6172C38.4121 32.3585 38.3711 32.1803 38.2822 32.0752C38.1932 31.9784 38.0154 31.8976 37.749 31.833V31.4932H50.2949C50.5694 31.4931 50.7389 31.4449 50.8359 31.3643C50.9248 31.2754 50.9979 31.0975 51.0625 30.8311H51.4102V34.6299ZM85.5869 31.833C85.3284 31.8977 85.1504 31.9782 85.0615 32.0752C84.9645 32.1803 84.9248 32.3585 84.9248 32.6172V42.9639H93.7031C93.986 42.9639 94.164 42.9233 94.2529 42.8506C94.3417 42.7697 94.4142 42.6001 94.4707 42.3418L94.8184 42.3252V46.1328H94.4707C94.4141 45.8742 94.3414 45.6963 94.2363 45.6074C94.1313 45.5104 93.9537 45.4697 93.7031 45.4697H81.2061V45.1221C81.4808 45.0493 81.6665 44.9681 81.7393 44.8711C81.82 44.766 81.8603 44.6048 81.8604 44.3545V32.6172C81.8604 32.3585 81.8204 32.1803 81.7314 32.0752C81.6425 31.9783 81.4647 31.8976 81.1982 31.833V31.4932H85.5869V31.833ZM134.509 31.1455C135.762 31.1455 137.006 31.3314 138.219 31.7031C139.431 32.075 140.062 32.2617 140.095 32.2617C140.192 32.2617 140.378 32.2369 140.652 32.1885C140.717 32.1804 140.765 32.1721 140.813 32.1641L141.113 32.3506L139.367 35.6885L139.076 35.5029C139.076 35.5025 139.093 35.4704 139.101 35.4463V35.373C139.1 34.9852 138.582 34.5732 137.548 34.1611C136.513 33.7409 135.422 33.5303 134.282 33.5303C132.706 33.5303 131.412 33.9909 130.41 34.9043C129.408 35.8177 128.907 36.9986 128.907 38.4375C128.907 39.7711 129.457 40.8947 130.564 41.8242C131.672 42.7537 133.038 43.2227 134.679 43.2227C135.317 43.2226 135.98 43.1496 136.675 42.9961C137.37 42.8506 138.114 42.6248 138.914 42.3096V40.3936H135.446C135.188 40.3936 135.01 40.4339 134.913 40.5146C134.816 40.5955 134.735 40.7655 134.662 41.0322H134.323V37.7988H134.671C134.727 38.0654 134.8 38.2432 134.905 38.332C135.01 38.4128 135.188 38.4609 135.438 38.4609H142.066V38.7852C141.816 38.8417 141.647 38.9143 141.55 39.0273C141.453 39.1324 141.404 39.3185 141.404 39.5771V42.3008L141.42 42.3096C141.42 42.5678 141.461 42.7533 141.558 42.8584C141.647 42.9635 141.824 43.0443 142.083 43.0928V43.4326C140.838 44.1601 139.512 44.7257 138.122 45.1299C136.732 45.534 135.414 45.7285 134.178 45.7285C131.85 45.7285 129.909 45.0336 128.373 43.6514C126.845 42.2611 126.078 40.5229 126.078 38.4375C126.078 36.352 126.862 34.5812 128.43 33.207C129.998 31.8328 132.027 31.1455 134.509 31.1455ZM27.8467 31.502C29.6655 31.502 31.0807 31.857 32.083 32.5684C33.0933 33.2797 33.5947 34.274 33.5947 35.543C33.5947 36.5937 33.2873 37.4587 32.665 38.1377C32.0507 38.8248 31.0883 39.3341 29.7949 39.6816L32.7539 43.8047C32.9236 44.0551 33.1256 44.2731 33.3438 44.459C33.5619 44.6448 33.9176 44.8713 34.4023 45.1299V45.4775H29.2617V45.1299C29.4557 45.1056 29.6013 45.0493 29.6982 44.9766C29.8033 44.8957 29.8516 44.8068 29.8516 44.6855C29.8515 44.6612 29.8197 44.5721 29.7471 44.4268C29.6743 44.2813 29.6011 44.1441 29.5283 44.0391L26.6025 39.7627H22.7949V44.3623C22.7949 44.6208 22.8353 44.7985 22.916 44.8955C22.9968 44.9925 23.1746 45.0652 23.4492 45.1299V45.4775H19.0605L19.0518 45.4697V45.1221C19.3185 45.0655 19.497 44.9928 19.5859 44.8877C19.6667 44.7826 19.7148 44.6048 19.7148 44.3545V32.6172C19.7148 32.3747 19.6746 32.1966 19.5938 32.0996C19.5129 31.9946 19.3352 31.9055 19.0605 31.8408V31.502H27.8467ZM60.2861 31.8408C60.0357 31.8974 59.8662 31.9704 59.7773 32.0674C59.6965 32.1725 59.6475 32.3502 59.6475 32.625V44.3623L59.6553 44.5381C59.6705 44.705 59.7089 44.8228 59.7695 44.8955C59.8504 44.9844 60.0195 45.0659 60.2861 45.1387V45.4775H55.9131V45.1299C56.1878 45.0652 56.3576 44.9846 56.4385 44.8877C56.5112 44.7826 56.5518 44.6129 56.5518 44.3623V32.625C56.5518 32.3502 56.5115 32.1725 56.4307 32.0674C56.3498 31.9704 56.1798 31.8974 55.9131 31.8408V31.502H60.2861V31.8408ZM102.506 31.8408C102.255 31.8974 102.086 31.9704 101.997 32.0674C101.916 32.1725 101.867 32.3502 101.867 32.625V44.3623L101.875 44.5381C101.89 44.7047 101.928 44.8228 101.988 44.8955C102.069 44.9844 102.239 45.0659 102.506 45.1387V45.4775H98.1328V45.1299C98.3995 45.0652 98.5773 44.9847 98.6582 44.8877C98.731 44.7826 98.7715 44.6129 98.7715 44.3623V32.625C98.7715 32.3503 98.7312 32.1725 98.6504 32.0674C98.5696 31.9704 98.3996 31.8974 98.1328 31.8408V31.502H102.506V31.8408ZM0.0166016 45.4697L0 45.4531H0.0166016V45.4697ZM64.0371 30.8311C64.1018 31.0895 64.1831 31.2676 64.2881 31.3564C64.3932 31.4532 64.571 31.4932 64.8213 31.4932H76.5342C76.809 31.4932 76.9792 31.4451 77.0762 31.3643C77.165 31.2754 77.2371 31.0974 77.3018 30.8311H77.6494V34.6299H77.3018C77.2452 34.3712 77.1725 34.1934 77.0674 34.1045C76.9623 34.0076 76.7847 33.9668 76.5342 33.9668H72.1934V44.3545C72.1934 44.6209 72.2338 44.7985 72.3145 44.8955C72.3953 44.9844 72.5653 45.0574 72.832 45.1221V45.4697H68.499V45.1221C68.7577 45.0493 68.928 44.9681 69.0088 44.8711C69.0894 44.766 69.1379 44.5959 69.1621 44.3457V33.9746H64.8213L64.8135 33.9668C64.5387 33.9668 64.3685 34.0071 64.2715 34.0879C64.1826 34.1687 64.1096 34.3387 64.0449 34.6055H63.6973V30.8311H64.0371ZM122.424 31.8164C122.165 31.8891 121.996 31.9703 121.923 32.0752C121.85 32.1803 121.81 32.3503 121.81 32.5928V44.3301C121.81 44.5887 121.85 44.767 121.931 44.8721C122.012 44.9689 122.173 45.0411 122.424 45.0977V45.4453H117.994V45.0977C118.131 45.0734 118.237 45.0249 118.31 44.9521C118.382 44.8796 118.423 44.7989 118.423 44.7021C118.423 44.6053 118.398 44.508 118.342 44.4111C118.285 44.3142 118.196 44.2006 118.075 44.0713L110.396 35.9639L110.388 35.9883V44.3457C110.388 44.6125 110.428 44.7907 110.509 44.8877C110.59 44.9766 110.751 45.0496 111.002 45.1143V45.4619H107.162V45.1143C107.429 45.0415 107.599 44.9603 107.68 44.8633C107.76 44.7582 107.801 44.5961 107.801 44.3457V32.6094C107.801 32.3508 107.76 32.1725 107.68 32.0674C107.591 31.9704 107.421 31.8899 107.17 31.8252V31.4854H111.988V31.8252C111.859 31.8494 111.753 31.898 111.681 31.9707C111.6 32.0434 111.56 32.1245 111.552 32.2295C111.552 32.3262 111.576 32.423 111.632 32.5117C111.688 32.6087 111.786 32.722 111.915 32.8594L119.223 40.5869V32.6006C119.223 32.3262 119.182 32.1566 119.102 32.0596C119.029 31.9707 118.851 31.8892 118.584 31.8164V31.4775H122.424V31.8164ZM9.45801 31.4932C11.0339 31.4932 12.2625 31.8084 13.1436 32.4307C14.0246 33.0611 14.4609 33.9344 14.4609 35.0498C14.4609 35.6884 14.2996 36.2545 13.9844 36.7314C13.6691 37.2083 13.1925 37.621 12.5459 37.9443C13.3459 38.3404 13.9356 38.8173 14.3154 39.375C14.6953 39.9328 14.8896 40.5954 14.8896 41.3633C14.8896 42.6566 14.389 43.6595 13.3867 44.3789C12.3844 45.0983 10.9694 45.4531 9.14258 45.4531H0.0166016V45.1221C0.29121 45.0493 0.47709 44.968 0.549805 44.8711C0.630433 44.766 0.670866 44.6046 0.670898 44.3545V32.6172C0.670898 32.3586 0.622795 32.1803 0.541992 32.0752C0.453074 31.9782 0.274567 31.8977 0.0078125 31.833V31.4932H9.45801ZM3.75098 43.1016H8.2207C9.62723 43.1016 10.5898 42.9558 11.1152 42.6729C11.6404 42.3899 11.8984 41.8962 11.8984 41.2012C11.8983 40.5065 11.6159 40.0542 11.0586 39.7471C10.4928 39.448 9.58709 39.294 8.32617 39.2939H3.75098V43.1016ZM22.7871 37.7178H27.1035C28.3804 37.7178 29.2856 37.5639 29.8271 37.2568C30.3687 36.9497 30.6357 36.4484 30.6357 35.7451C30.6357 35.042 30.369 34.5895 29.8438 34.3066C29.3183 34.0237 28.3642 33.8857 26.998 33.8857H22.7871V37.7178ZM3.75098 36.8125H9.05371C9.89428 36.8125 10.5168 36.691 10.9209 36.4404C11.325 36.1899 11.5273 35.818 11.5273 35.3008C11.5273 34.735 11.3168 34.3308 10.8965 34.1045C10.4762 33.8701 9.74071 33.7569 8.67383 33.7568H3.75098V36.8125ZM70.8916 0C71.9827 3.5546e-06 72.8796 0.897215 72.8799 1.98828C72.8799 2.70771 72.4919 3.33893 71.918 3.68652V4.77734C78.0209 2.19875 81.4323 5.46449 77.4717 9.64355C81.2386 14.2107 76.2669 20.0148 71.918 17.1855V21.7607C72.605 21.8497 73.1706 22.3026 73.3809 22.8926C74.9086 22.5692 76.2753 21.7366 77.5605 20.6211C77.415 20.2573 77.043 19.966 76.8975 19.6104C78.3363 18.7131 79.5972 17.2018 80.252 15.5205C80.9552 17.6464 80.786 19.918 79.3311 22.0439C79.04 21.9308 78.7402 21.8095 78.4492 21.6963C76.3072 23.8463 74.2216 24.9861 72.0957 25.1963C71.3603 25.5277 71.0452 26.1666 70.9482 26.9668C70.7785 26.1423 70.3821 25.5358 69.7031 25.1963C67.5854 24.978 65.5001 23.8382 63.3662 21.6963C63.0752 21.8095 62.7754 21.9308 62.4844 22.0439C61.0294 19.918 60.8602 17.6464 61.5635 15.5205C62.2182 17.2018 63.4792 18.7131 64.918 19.6104C64.7725 19.9741 64.4004 20.2654 64.2549 20.6211C65.4755 21.68 66.7694 22.4881 68.2002 22.8438C68.4509 22.2135 69.0975 21.761 69.8652 21.7529V15.1895C63.544 23.1353 57.0529 13.9201 69.8408 5.84473C69.8408 5.84473 69.8572 5.83621 69.8652 5.82812V3.68652C69.2913 3.33893 68.9033 2.70771 68.9033 1.98828C68.9036 0.889134 69.8005 0 70.8916 0ZM57.1904 8.15625C61.5875 7.41275 63.8262 9.15871 61.9268 12.9658C60.9972 14.4288 60.5451 16.1265 60.5693 18.0664C61.1352 21.429 57.2063 22.1732 54.4014 19.5625L54.4092 19.5537C53.116 19.5537 52.1862 19.344 51.8467 18.4873C50.6585 18.7216 49.5918 18.3171 49.0664 17.4199C47.5952 17.6543 46.641 17.3631 45.9297 16.1748C44.6283 16.2556 43.537 15.9245 42.8984 14.6797C41.4758 14.2432 40.7559 13.5638 40.7559 12.6504C39.285 12.0765 38.5173 11.3571 38.7598 10.4033C37.3937 10.2497 37.8225 8.35803 39.1562 8.68945C40.4916 9.02886 52.7934 8.89987 57.1904 8.15625ZM79.8965 12.9658C77.9971 9.15867 80.2365 7.41259 84.6338 8.15625C89.0314 8.89989 101.334 9.02895 102.668 8.68945C104.001 8.35845 104.429 10.2497 103.063 10.4033C103.306 11.3571 102.53 12.0765 101.067 12.6504C101.067 13.5638 100.347 14.2432 98.9248 14.6797C98.2862 15.9245 97.195 16.2556 95.8936 16.1748C95.1823 17.363 94.2288 17.6542 92.7578 17.4199C92.2324 18.3172 91.1648 18.7217 89.9766 18.4873C89.6289 19.3439 88.6994 19.5537 87.4062 19.5537L87.4219 19.5625C84.6169 22.1731 80.6891 21.429 81.2549 18.0664C81.2791 16.1265 80.826 14.4288 79.8965 12.9658ZM60.4883 14.082C62.1049 10.9215 60.3831 10.0962 56.5518 10.7832C52.7202 11.4703 42.0089 11.1234 40.8691 10.7354C38.9214 10.0727 39.6408 11.8505 41.1846 12.376C41.1846 13.0873 42.0661 13.9681 43.3271 14.3076C43.893 15.2695 44.9274 15.7795 46.0752 15.7148C46.7058 16.6362 48.1127 17.2259 49.4141 17.04C49.8829 17.7352 51.0713 18.3011 52.1221 18.1152C52.4288 18.7849 53.5244 19.1559 54.6699 19.1572C57.1502 21.1694 60.3257 20.8036 59.8252 18.2041C59.801 16.7088 60.0276 15.1086 60.4883 14.082ZM85.2559 10.7832C81.4244 10.0961 79.7027 10.9214 81.3193 14.082C81.78 15.1086 82.0067 16.7089 81.9824 18.2041C81.4819 20.8035 84.6565 21.169 87.1367 19.1572C88.2826 19.1561 89.3788 18.7851 89.6855 18.1152C90.7364 18.3012 91.9247 17.7352 92.3936 17.04C93.6949 17.226 95.1019 16.6363 95.7324 15.7148C96.8801 15.7794 97.9147 15.2695 98.4805 14.3076C99.7414 13.9681 100.623 13.0873 100.623 12.376C102.167 11.8504 102.885 10.0726 100.938 10.7354C99.7956 11.1233 89.087 11.4702 85.2559 10.7832ZM58.3135 11.0908C60.399 10.913 60.5045 12.1013 59.7852 13.3057C59.9791 13.92 60.0031 14.5509 59.8818 15.335C59.2512 16.668 56.9721 15.65 57.0684 14.5186C56.2764 14.3003 55.9449 13.8467 55.9287 13.2324C55.347 13.1272 54.9511 12.6669 54.749 11.8428C54.3692 12.247 55.2578 13.1442 54.3525 12.8047C54.0939 12.6673 53.9405 12.4242 53.9971 11.9473C53.3585 11.9796 52.7118 12.0204 52.0732 12.0527C51.8147 12.2871 51.8387 12.449 52.1455 12.5137C52.7033 12.546 53.2616 12.5858 53.8193 12.6182C54.078 12.6748 54.1026 12.9016 54.1592 13.1279C53.6095 13.1764 53.1239 13.2083 52.5742 13.2568C52.2509 13.4023 52.0492 13.5723 52.6797 13.8633C53.3343 13.8552 53.9889 13.8391 54.6436 13.8311C54.9103 14.017 54.9914 14.2032 54.9268 14.4053C54.5145 14.4376 54.0939 14.4774 53.6816 14.5098C53.5768 14.5182 53.6336 14.8818 53.9648 14.9707C54.1429 15.0757 55.501 14.793 55.501 14.793C55.7189 14.8253 55.8645 14.9143 55.8242 15.1484C55.4281 15.2697 55.0396 15.3827 54.6436 15.5039L55.0723 15.9326C55.5572 15.8195 56.0502 15.7144 56.5352 15.6094C56.8181 15.6579 56.9962 15.7634 56.9639 16.0059C56.6082 16.1433 56.2522 16.272 55.8965 16.4014C55.7591 16.5954 55.9534 16.7004 56.4707 16.7246C56.7859 16.5791 57.0933 16.4423 57.4004 16.2969C57.7963 16.305 57.9502 16.41 57.8613 16.6201C57.6269 16.7899 57.3838 16.9513 57.1494 17.1211C57.1172 17.2988 57.3034 17.3554 57.7236 17.2988C57.9742 17.0968 58.225 16.8945 58.4756 16.6924C58.7986 16.6279 58.9032 16.7734 58.9033 17.0156C58.0626 18.1069 56.9149 18.8271 55.6943 19.4414C55.3146 19.3929 55.0961 19.279 55.2334 19.0527C55.9931 18.7052 56.7046 18.3256 57.3027 17.873C56.7534 17.9376 56.4141 17.7914 56.4141 17.3389C55.4602 17.7835 54.2071 18.0996 52.7764 18.334C52.3803 18.2127 52.2753 18.0988 52.4531 17.9775C53.5928 17.7431 54.6599 17.4768 55.4844 17.0889C55.2338 16.9999 55.1041 16.8214 55.0879 16.5547C53.6249 16.9992 51.9918 17.2903 50.165 17.3711C49.7614 17.1934 49.5919 17.0323 49.9551 16.9111C51.5474 16.798 53.0025 16.5791 54.2715 16.1992C53.7789 16.0779 53.7871 15.8114 53.876 15.5205C51.839 15.8681 49.6078 16.0703 47.207 16.1592C46.7059 16.0298 46.4313 15.8842 46.6738 15.6982C48.8562 15.5689 50.974 15.4069 52.9463 15.124C52.6472 15.0189 52.5747 14.8414 52.7363 14.5908C49.9557 14.8252 47.0778 14.922 44.1436 14.9463C43.7717 14.6715 43.5859 14.4213 43.8203 14.2354C46.5847 14.2596 49.2846 14.2194 51.8389 14.0254C51.3216 13.9931 51.2729 13.7018 51.5557 13.2412C48.3386 13.3705 45.1135 13.3539 41.8965 13.168C41.557 12.9012 41.2984 12.6504 41.5732 12.416C44.8146 12.5938 48.0643 12.6756 51.3057 12.5947C51.1278 12.4169 51.1358 12.2384 51.3379 12.0605C47.8864 12.198 44.3457 12.0687 40.7891 11.8828C40.3689 11.5273 40.2471 11.317 40.4326 11.2441L40.4248 11.2363C43.3994 11.3818 46.3741 11.5276 49.4053 11.5195C52.3719 11.374 55.3388 11.2363 58.3135 11.0908ZM83.5098 11.0908C86.4764 11.2363 89.4513 11.374 92.418 11.5195C95.4492 11.5276 98.4238 11.3818 101.398 11.2363L101.374 11.2441C101.56 11.3169 101.439 11.5271 101.019 11.8828C97.4619 12.0687 93.9213 12.198 90.4697 12.0605C90.6637 12.2384 90.6798 12.4169 90.502 12.5947C93.7434 12.6756 96.9849 12.5938 100.234 12.416C100.509 12.6504 100.251 12.9012 99.9111 13.168C96.6941 13.3539 93.469 13.3705 90.252 13.2412C90.5346 13.7017 90.4858 13.993 89.9688 14.0254C92.523 14.2194 95.2229 14.2596 97.9873 14.2354C98.2216 14.4212 98.0358 14.6715 97.6641 14.9463C94.7298 14.922 91.852 14.8252 89.0713 14.5908C89.2329 14.8413 89.1602 15.0189 88.8613 15.124C90.8336 15.4069 92.9513 15.5689 95.1338 15.6982C95.3763 15.8841 95.1017 16.0299 94.6006 16.1592C92.1998 16.0703 89.9686 15.8681 87.9316 15.5205C88.0205 15.8114 88.0285 16.0779 87.5439 16.1992C88.813 16.5791 90.268 16.798 91.8604 16.9111C92.2235 17.0323 92.054 17.1934 91.6504 17.3711C89.8235 17.2903 88.1904 16.9993 86.7354 16.5547C86.7192 16.8214 86.5895 16.9999 86.3389 17.0889C87.1633 17.4768 88.2305 17.7431 89.3701 17.9775C89.548 18.0988 89.443 18.2127 89.0469 18.334C87.6161 18.0996 86.363 17.7834 85.4092 17.3389C85.4092 17.7915 85.07 17.9376 84.5205 17.873C85.1186 18.3256 85.8301 18.7052 86.5898 19.0527C86.7273 19.2791 86.5088 19.3929 86.1289 19.4414C84.9083 18.8271 83.7606 18.1069 82.9199 17.0156C82.92 16.7733 83.0254 16.6277 83.3486 16.6924C83.5991 16.8944 83.8492 17.0968 84.0996 17.2988C84.5199 17.3554 84.7061 17.2989 84.6738 17.1211C84.4395 16.9514 84.1972 16.7898 83.9629 16.6201C83.874 16.41 84.0271 16.305 84.4229 16.2969C84.7299 16.4423 85.0374 16.5792 85.3525 16.7246C85.8699 16.7004 86.0642 16.5954 85.9268 16.4014C85.5711 16.272 85.215 16.1433 84.8594 16.0059C84.827 15.7634 85.0053 15.6579 85.2881 15.6094C85.773 15.7144 86.2661 15.8195 86.751 15.9326L87.1797 15.5039C86.7838 15.3827 86.3959 15.2696 86 15.1484C85.9596 14.9141 86.0969 14.8253 86.3232 14.793C86.3466 14.7978 87.6811 15.0745 87.8584 14.9707C88.1898 14.8818 88.2467 14.5178 88.1416 14.5098C87.7294 14.4774 87.3087 14.4376 86.8965 14.4053C86.8318 14.2032 86.913 14.017 87.1797 13.8311C87.8344 13.8391 88.4898 13.8552 89.1445 13.8633C89.7745 13.5724 89.5723 13.4023 89.249 13.2568C88.6995 13.2083 88.2146 13.1764 87.665 13.1279C87.7216 12.9017 87.7455 12.6749 88.0039 12.6182C88.5617 12.5858 89.12 12.546 89.6777 12.5137C89.9848 12.449 90.0086 12.2871 89.75 12.0527C89.1115 12.0204 88.4647 11.9796 87.8262 11.9473C87.8828 12.4242 87.7294 12.6673 87.4707 12.8047C86.5656 13.144 87.4541 12.2469 87.0742 11.8428C86.8721 12.667 86.4764 13.1273 85.8945 13.2324C85.8784 13.8468 85.547 14.3003 84.7549 14.5186C84.8512 15.65 82.572 16.6682 81.9414 15.335C81.8202 14.5509 81.8451 13.92 82.0391 13.3057C81.3196 12.1012 81.4243 10.913 83.5098 11.0908ZM54.6758 19.1582C54.6738 19.1582 54.6719 19.1572 54.6699 19.1572C54.6668 19.1547 54.6632 19.1529 54.6602 19.1504L54.6758 19.1582ZM87.1367 19.1572C87.1349 19.1572 87.1327 19.1582 87.1309 19.1582L87.1475 19.1504C87.1442 19.1531 87.14 19.1546 87.1367 19.1572ZM58.1035 16.0781C58.1359 16.0135 58.2816 16.0135 58.4189 16.0781C58.5562 16.1427 58.6444 16.2476 58.6123 16.3203C58.58 16.385 58.4352 16.3849 58.2979 16.3203C58.1604 16.2556 58.0712 16.1509 58.1035 16.0781ZM83.3965 16.0781C83.5338 16.0135 83.6795 16.0135 83.7119 16.0781C83.7442 16.1509 83.655 16.2556 83.5176 16.3203C83.3802 16.3849 83.2354 16.385 83.2031 16.3203C83.171 16.2476 83.2593 16.1427 83.3965 16.0781ZM69.7031 7.60645C61.7572 12.8525 63.689 20.2166 69.8564 13.6211V7.46094C69.808 7.50939 69.7516 7.55799 69.7031 7.60645ZM76.2588 8.82715C78.8697 5.01986 75.0789 4.62424 71.9102 6.10352L71.918 6.11133V14.7197C74.052 18.7938 77.8756 12.869 76.1377 10.6299C72.3304 13.0387 70.2854 7.24303 76.2588 8.82715ZM57.3359 15.7549C57.3765 15.6742 57.5379 15.6819 57.6914 15.7627C57.8448 15.8515 57.9336 15.9809 57.8936 16.0537C57.8532 16.1345 57.6916 16.1266 57.5381 16.0459C57.3845 15.957 57.2955 15.8276 57.3359 15.7549ZM84.1162 15.7627C84.2697 15.682 84.4312 15.6741 84.4717 15.7549C84.5121 15.8276 84.4231 15.957 84.2695 16.0459C84.116 16.1267 83.9545 16.1345 83.9141 16.0537C83.8739 15.9809 83.9628 15.8515 84.1162 15.7627ZM56.6885 15.1562C56.7451 15.0917 56.8988 15.1246 57.0361 15.2295C57.1735 15.3345 57.2469 15.4802 57.1904 15.5449C57.1339 15.6096 56.9802 15.5767 56.8428 15.4717C56.7054 15.3666 56.6319 15.2209 56.6885 15.1562ZM84.7793 15.2295C84.9166 15.1245 85.0703 15.0917 85.127 15.1562C85.1835 15.2209 85.1101 15.3666 84.9727 15.4717C84.8353 15.5767 84.6816 15.6096 84.625 15.5449C84.5685 15.4802 84.6419 15.3345 84.7793 15.2295ZM57.6182 14.5508V14.5586C57.3443 14.6156 58.0626 15.3827 58.2246 15.335C58.6934 15.4077 58.8309 15.4152 59.041 15.2939C59.3967 15.011 59.2917 14.688 58.7422 14.6152C58.3865 14.5587 57.9819 14.5346 57.6182 14.5508ZM84.1973 14.5508C83.8335 14.5346 83.4289 14.5587 83.0732 14.6152C82.5237 14.688 82.4188 15.011 82.7744 15.2939C82.9846 15.4152 83.122 15.4077 83.5908 15.335C83.7529 15.3827 84.4712 14.6156 84.1973 14.5586V14.5508ZM55.751 14.2676C55.8399 14.1706 56.0667 14.2352 56.2607 14.4131C56.4546 14.5909 56.543 14.8093 56.4541 14.9062C56.365 15.0029 56.1391 14.9383 55.9453 14.7607C55.7514 14.583 55.6623 14.3646 55.751 14.2676ZM85.5547 14.4131C85.7487 14.2352 85.9755 14.1706 86.0645 14.2676C86.1532 14.3646 86.064 14.583 85.8701 14.7607C85.6763 14.9383 85.4504 15.0029 85.3613 14.9062C85.2724 14.8093 85.3608 14.5909 85.5547 14.4131ZM54.7812 13.1523C54.8863 13.0392 55.1689 13.1118 55.4033 13.3301C55.6377 13.5483 55.7428 13.8153 55.6377 13.9365C55.5323 14.0491 55.2498 13.9758 55.0156 13.7578C54.7814 13.5397 54.6764 13.2736 54.7812 13.1523ZM86.4121 13.3301C86.6465 13.1118 86.9291 13.0392 87.0342 13.1523C87.139 13.2736 87.034 13.5397 86.7998 13.7578C86.5657 13.9758 86.2831 14.0491 86.1777 13.9365C86.0726 13.8153 86.1777 13.5483 86.4121 13.3301ZM56.8584 13.3623C56.5356 13.4029 57.1008 13.9354 57.2949 13.9033C57.8608 13.9437 58.2736 13.9282 58.5322 13.8555C58.9523 13.6857 58.8307 13.4183 58.168 13.3779C57.7315 13.3456 57.2948 13.3542 56.8584 13.3623ZM84.957 13.3623C84.5206 13.3542 84.0839 13.3456 83.6475 13.3779C82.9847 13.4183 82.8631 13.6857 83.2832 13.8555C83.5419 13.9282 83.9547 13.9437 84.5205 13.9033C84.7146 13.9354 85.2798 13.4029 84.957 13.3623ZM55.832 11.9316V11.9229C55.3552 11.9713 56.1954 12.6505 56.4785 12.6104C57.3111 12.6669 57.9179 12.6507 58.2979 12.5537C58.9198 12.3435 58.7497 12.0038 57.7637 11.9473C57.1252 11.9069 56.4786 11.9236 55.832 11.9316ZM85.9834 11.9316C85.3368 11.9236 84.6902 11.9069 84.0518 11.9473C83.0658 12.0038 82.8956 12.3435 83.5176 12.5537C83.8975 12.6507 84.5043 12.6669 85.3369 12.6104C85.62 12.6505 86.4602 11.9713 85.9834 11.9229V11.9316ZM59.9707 9.35254C56.9961 9.06964 53.9972 9.95917 50.9902 10.04C47.2395 10.1451 43.4638 10.0319 39.6484 9.60352C38.9616 9.5713 38.6307 9.78927 39.5439 9.95898C39.8441 10.1207 45.5102 10.7107 50.7559 10.4844C55.3148 10.2904 58.3788 9.69224 59.8984 9.95898C60.5612 10.0961 61.3123 9.66773 59.9707 9.35254ZM90.8252 10.04C87.8182 9.95917 84.8194 9.06964 81.8447 9.35254C80.5031 9.66773 81.2542 10.0961 81.917 9.95898C83.4367 9.69223 86.5006 10.2904 91.0596 10.4844C96.3052 10.7107 101.971 10.1207 102.271 9.95898C103.185 9.78927 102.854 9.5713 102.167 9.60352C98.3516 10.0319 94.5759 10.1451 90.8252 10.04ZM75.1357 9.8457C73.3574 8.95652 73.3246 10.7509 75.1191 9.87793L75.1357 9.8457Z" fill="white"/>
</svg>
