<svg width="96" height="55" viewBox="0 0 96 55" fill="none" xmlns="http://www.w3.org/2000/svg">
<g clip-path="url(#clip0_29_7061)">
<mask id="mask0_29_7061" style="mask-type:luminance" maskUnits="userSpaceOnUse" x="0" y="0" width="96" height="55">
<path d="M0 0H96V55H0V0Z" fill="white"/>
</mask>
<g mask="url(#mask0_29_7061)">
<path fill-rule="evenodd" clip-rule="evenodd" d="M74.3963 11.1865C72.7886 17.1764 71.1879 23.1681 69.6201 29.1686C68.8359 32.1686 68.0663 35.1707 67.1634 38.1388C66.2866 41.0229 65.2098 44.1011 63.6402 46.7204C62.003 49.4542 59.883 51.5884 56.9493 52.9551C55.7762 53.501 54.5742 53.8755 53.3131 54.1436C51.5239 54.5236 49.7266 54.6801 47.9083 54.7832C43.4057 55.0376 33.8539 54.9995 29.3527 54.9995L32.1122 44.7455C34.2011 44.7455 36.2898 44.7528 38.3783 44.6948C40.3936 44.6385 42.6114 44.5303 44.5961 44.0598C46.7698 43.5442 48.4098 42.6596 49.8464 40.8865C51.155 39.2716 52.0347 37.2563 52.7557 35.3558C54.0722 31.8851 55.4203 26.9159 56.3707 23.342C57.4457 19.2963 58.4789 15.2405 59.52 11.1865H74.3963ZM92.992 11.1864L84.9644 41.0169H70.0885L78.1157 11.1864H92.992ZM43.9342 0H58.8105C57.2519 5.82292 55.6955 11.6463 54.1191 17.4645C53.0206 21.5177 51.9294 25.5727 50.7369 29.5999C50.2167 31.3555 49.6974 33.1061 49.0155 34.8104C48.4677 36.1797 47.8553 37.3979 46.723 38.4209C45.8773 39.185 44.955 39.6603 43.8809 39.999C42.4992 40.4349 41.1026 40.5946 39.675 40.7119C37.6219 40.8806 35.5682 40.9237 33.5115 40.9569C28.7815 41.0332 20.1921 41.0224 15.4621 41.002C13.7625 40.9945 12.0629 40.9842 10.3632 40.953C9.13113 40.9308 7.9003 40.9003 6.6699 40.8231C5.84834 40.771 5.03317 40.7021 4.22139 40.552C3.67058 40.4507 3.14016 40.3143 2.62334 40.0881C0.92117 39.3424 0.0537203 37.8517 0.00314382 36.0365C-0.0261819 34.9976 0.154023 34.0081 0.361429 33.0034C0.655963 31.5801 1.02275 30.1764 1.38613 28.7712C2.07976 26.0863 3.34926 21.1321 4.3387 18.5243C5.11392 16.4806 6.13778 14.4467 8.08306 13.153C9.17065 12.4299 10.3135 12.0455 11.5737 11.7912C12.5079 11.6028 13.4467 11.5031 14.3941 11.4323C15.9806 11.3143 17.5685 11.2772 19.158 11.2491C21.417 11.2095 23.6759 11.201 25.9349 11.1942L31.5698 11.1865H37.2046L35.1975 18.644C31.8485 18.644 28.5001 18.6346 25.1511 18.6542C24.1735 18.6602 23.1973 18.653 22.2207 18.7169C21.8739 18.7394 21.5351 18.762 21.1998 18.8796C20.7586 19.033 20.5406 19.3109 20.3468 19.7097C20.0633 20.2935 19.8997 20.9092 19.719 21.5254C19.4432 22.4663 19.1878 23.4126 18.9319 24.3595C18.5379 25.8181 18.144 27.2768 17.7699 28.7409C17.6318 29.2829 17.4962 29.8249 17.3798 30.3721C17.2978 30.7555 17.2238 31.1378 17.1872 31.529C17.1473 31.9568 17.135 32.4706 17.3934 32.8678C17.656 33.2709 18.1002 33.3646 18.5146 33.4249C18.9829 33.4934 19.4521 33.5083 19.923 33.5223C20.694 33.5459 21.465 33.5493 22.236 33.553C24.3454 33.5633 26.4546 33.5638 28.5639 33.5505C29.536 33.5445 30.5072 33.5376 31.4784 33.4984C32.1472 33.4716 32.8078 33.4487 33.4665 33.2888C33.9671 33.1675 34.3586 32.9766 34.6974 32.5662C34.9264 32.2884 35.0761 31.9802 35.2128 31.653C35.5529 30.8417 35.7904 30.0018 36.0382 29.1624C36.989 25.9421 37.8455 22.6972 38.7205 19.4562L41.3339 9.73L43.9342 0Z" fill="white"/>
</g>
</g>
<defs>
<clipPath id="clip0_29_7061">
<rect width="96" height="55" fill="white"/>
</clipPath>
</defs>
</svg>
