<?xml version="1.0" encoding="UTF-8"?>
<svg id="Layer_1" xmlns="http://www.w3.org/2000/svg" version="1.1" viewBox="0 0 55 59">
  <!-- Generator: Adobe Illustrator 29.3.1, SVG Export Plug-In . SVG Version: 2.1.0 Build 151)  -->
  <defs>
    <style>
      .st0 {
        fill: none;
      }

      .st1 {
        fill: #262626;
      }
    </style>
  </defs>
  <path class="st0" d="M52.1,6.5c-1.5-1.4-4.6-2.5-7.3-3.6-.8-.3-2.7-.9-4.8-1.4-2.2-.5-4.5-.9-5.4-1l-4.5-.4c-.3,0-2.7,0-3,0-1.5,0-6.4.1-12.3,1.5-1.4.3-2.8.8-4.3,1.3-1.8.6-3.3,1.2-4.5,1.7-1.2.6-2.2,1.2-3,1.9C.3,9,.2,12.1.2,14.6c0,0,0,1.4.4,4.2.3,1.7.7,4,1.5,6.7.5,1.9,1.2,4.1,2.1,6.4.6,1.4,1.2,2.8,1.9,4.3.7,1.4,1.4,2.8,2.2,4.2,1.5,2.6,3.3,5.2,5.2,7.7,1,1.3,2,2.4,3.1,3.5,1.1,1.2,2.3,2.4,3.4,3.4,2.3,2.1,4.1,3.6,6.3,4,.6,0,2.1,0,2.6,0,2.1-.4,4.2-2.1,6.4-4.2,2.1-2,4.2-4.1,6.3-6.7,4-4.9,7.4-11.3,9.3-16.1,2.3-5.6,3.1-10.3,3.5-13.3l.5-3.9c0-2.5-.1-5.5-2.8-8.1Z"/>
  <g>
    <path class="st1" d="M10.4,12.2l-.8,4.1s.9.2,1.4-.6c.3-.4.6-1.5.6-2.3,0-.4,0-.7-.2-.9-.2-.2-.5-.3-1-.2Z"/>
    <polygon class="st1" points="33.5 15 34.9 15 34.8 12.1 33.5 15"/>
    <path class="st1" d="M21.3,29.8c-3.3,1.3-7.5,3.6-9.7,6.7-1.6,2.2-.9,3.8-.4,5,1.2,1.8,2.5,3.6,3.8,5.3.9,1.1,3,3.4,3,3.4.9,1,2.2,2.3,3.3,3.3,2.2,2,3.6,3.2,5.3,3.5.7.1,2,0,2.1,0,1.6-.3,3.4-2,5.4-3.7,2.3-2.1,4.1-4,6-6.5,1.5-1.8,2.9-3.8,4.1-5.9,2.1-3.4,3.8-7,4.9-9.7,1-2.5,1.7-4.8,2.2-6.8-2.4,0-10.6.6-18,2.1-7.8,1.6-12,3.5-12,3.5Z"/>
    <path class="st1" d="M50.8,7.9c-1.1-1-3.4-2-5.5-2.8-.4-.1-.8-.3-1.2-.4-.6-.2-2.4-.8-4.5-1.3-2.3-.5-4.4-.9-5.2-1l-4.4-.4c-.2,0-1.2,0-1.8,0h-1.1s-.4,0-.4,0c-.9,0-5.6,0-11.4,1.4-1.4.3-2.9.8-4.2,1.2-1.6.5-3,1.1-4.2,1.7-1.2.5-1.9,1-2.5,1.5-2,1.9-2.3,4.3-2.3,6.7,0,0,.1,1.4.5,3.9.2,1.4.6,3.7,1.4,6.5.2.9.5,1.8.8,2.8,1.1-1.4,4.5-3.3,13.6-4.5,7.6-1,17.3-1.2,23.6-1.3h9.9c0-.1,0-.2,0-.2.3-1.3.5-2.4.7-3.5.3-2.1.4-3.4.4-3.8,0-2.4-.2-4.6-2.2-6.5ZM14.6,14.2c-.8,3.9-4.3,3.8-4.3,3.8h-3.9l1.6-7.5h3.9c.4,0,3.5,0,2.7,3.7ZM18.1,18.2c-3.5,0-3.2-1.9-3.1-2.5l1.1-5.2h2.9l-1,4.9s-.2.8.4.8.7-.6.8-.8l1-4.8h2.9l-1.1,5.2s-.4,2.4-3.9,2.5ZM26,18.2c-4.4,0-2.9-4.6-2.9-4.6,0,0,.8-3.3,4.5-3.3s2.8,3,2.8,3h-2.7c0-.4.1-1-.5-1-.6,0-.9.4-1.2,1.8-.3,1.3-.3,2.3.3,2.3.7,0,.9-1,.9-1h2.7s-.2,1.1-1.1,1.9c-.9.8-2,1-2.9,1ZM34.9,18v-1.2h-2.2l-.5,1.2h-2.8l3.9-7.5h3.8l.8,7.5h-3ZM41.8,18h-2.9l1.2-5.5h-1.8l.4-2h6.5l-.4,2h-1.8l-1.1,5.5ZM47.1,18h-2.9l1.6-7.5h2.9l-1.6,7.5Z"/>
  </g>
</svg>