<svg width="189" height="55" viewBox="0 0 189 55" fill="none" xmlns="http://www.w3.org/2000/svg">
<g clip-path="url(#clip0_29_7106)">
<path d="M39.683 16.2374C40.8568 13.5265 41.4506 10.5998 41.4262 7.6455C41.4343 5.01556 40.8981 2.41243 39.8513 0C39.8513 0 33.1261 0.753153 27.0892 7.63063H18.2196C12.1828 0.753153 5.44764 0 5.44764 0C4.40403 2.41307 3.8712 5.01623 3.88271 7.6455C3.8575 10.6004 4.45308 13.5276 5.63087 16.2374C3.72424 17.927 -0.0741874 21.5194 9.72515e-05 27.4207C0.0644773 32.564 1.98102 34.764 1.98102 34.764C3.46671 32.341 4.58594 32.2072 4.58594 32.2072C4.59588 34.8317 5.58694 37.3575 7.36418 39.2878C7.81484 35.4131 9.84034 35.0018 9.84034 35.0018C10.1573 39.164 13.1188 42.3203 13.1188 42.3203C12.8018 38.3216 14.9808 36.8698 14.9808 36.8698L21.0326 55H24.2664L30.3231 36.8896C30.3231 36.8896 32.5021 38.3414 32.1901 42.3401C32.1901 42.3401 35.1615 39.1838 35.4685 35.0216C35.4685 35.0216 37.499 35.4329 37.9447 39.3077C39.7242 37.3705 40.7168 34.8383 40.7279 32.2072C40.7279 32.2072 41.8323 32.3212 43.3229 34.7441C43.3229 34.7441 45.2444 32.5441 45.3038 27.4009C45.3831 21.5194 41.5995 17.927 39.683 16.2374ZM18.9476 33.9414C18.9476 33.9966 18.9257 34.0496 18.8867 34.0886C18.8477 34.1276 18.7948 34.1495 18.7396 34.1495C18.6845 34.1495 18.6316 34.1276 18.5926 34.0886C18.5536 34.0496 18.5316 33.9966 18.5316 33.9414C18.5269 32.3085 18.4277 30.6773 18.2345 29.0559C17.9423 26.8707 17.5362 25.4932 16.9469 24.5369C16.3576 23.5806 15.6544 23.9027 15.2631 24.2941C14.446 25.1167 14.2479 25.2851 13.1732 24.5865C12.0986 23.8878 11.1527 23.7491 9.55806 23.3577C7.96341 22.9662 6.24496 21.8712 6.14592 20.3847C6.12871 19.9523 6.21874 19.5224 6.40799 19.1334C6.59723 18.7443 6.8798 18.4082 7.23047 18.155C7.60557 18.7259 8.11524 19.1958 8.71457 19.5233C9.31391 19.8508 9.98453 20.0258 10.6674 20.0329C13.8913 20.241 15.1245 19.914 16.9172 20.4441C18.7099 20.9743 19.0071 21.7968 19.0071 23.4568C19.0071 24.7797 18.9476 33.5748 18.9476 33.9167M39.163 20.4095C39.0639 21.8613 37.3455 22.9662 35.7508 23.3824C34.1562 23.7986 33.2747 23.8779 32.1356 24.6113C30.9966 25.3446 30.8679 25.1414 30.0507 24.3189C29.6545 23.9275 28.9513 23.6054 28.3669 24.5617C27.7826 25.518 27.3765 26.8955 27.0793 29.0806C26.8821 30.7017 26.7812 32.3331 26.7772 33.9662C26.773 33.9932 26.7635 34.0191 26.7493 34.0425C26.7351 34.0658 26.7164 34.0861 26.6943 34.1022C26.6722 34.1183 26.6472 34.1299 26.6206 34.1363C26.5941 34.1427 26.5665 34.1439 26.5395 34.1396C26.496 34.1328 26.4558 34.1124 26.4246 34.0812C26.3935 34.05 26.373 34.0098 26.3662 33.9662C26.3662 33.6243 26.3018 24.8293 26.3018 23.5063C26.3018 21.8464 26.5296 21.0288 28.3966 20.4937C30.2637 19.9586 31.4176 20.3153 34.6663 20.0824C35.3484 20.0749 36.0181 19.8997 36.6166 19.5722C37.2151 19.2448 37.7239 18.7751 38.0982 18.2045C38.4499 18.4568 38.7332 18.7928 38.9225 19.182C39.1119 19.5713 39.2013 20.0017 39.1828 20.4342" fill="white"/>
<path d="M80.4155 30.9586V48.2217H72.3135V6.76855H98.0704V14.1663H80.4155V23.5609H96.3074V30.9586H80.4155Z" fill="white"/>
<path d="M171.608 30.9635L165.868 48.2167H157.385L164.437 28.1392V26.8509L157.385 6.77344H166.071L171.682 23.5658H174.703L180.314 6.77344H189L181.948 26.8509V28.1392L189 48.2167H180.517L174.777 30.9635H171.608Z" fill="white"/>
<path d="M136.01 32.861C136.01 36.2998 135.133 41.7205 128.398 41.7205C121.663 41.7205 120.787 36.2998 120.787 32.861V22.1237C120.787 18.6849 121.658 13.2642 128.398 13.2642C135.138 13.2642 136.01 18.6849 136.01 22.1237V32.861ZM139.655 10.5241C136.944 7.59077 133.197 6.12245 128.413 6.11915C123.629 6.11584 119.88 7.58416 117.166 10.5241C114.456 13.464 113.101 17.5932 113.101 22.9115V32.0732C113.101 37.5534 114.456 41.7221 117.166 44.5795C119.877 47.4369 123.626 48.8655 128.413 48.8655C133.197 48.8655 136.944 47.4369 139.655 44.5795C142.365 41.7221 143.721 37.5534 143.721 32.0732V22.9115C143.721 17.5899 142.365 13.4607 139.655 10.5241Z" fill="white"/>
</g>
<defs>
<clipPath id="clip0_29_7106">
<rect width="189" height="55" fill="white"/>
</clipPath>
</defs>
</svg>
