<svg width="331" height="55" viewBox="0 0 331 55" fill="none" xmlns="http://www.w3.org/2000/svg">
<g clip-path="url(#clip0_29_7040)">
<path d="M252.137 0.00648567V43.0537C252.137 45.8517 253.521 47.2885 256.341 47.4313C256.376 47.4342 270.547 47.4342 270.547 47.4342V52.2636C270.547 52.8028 270.255 53.1816 269.654 53.1816H246.656C239.551 53.1816 238.5 49.2762 238.5 45.7292V2.93265C238.5 0.912896 239.271 -0.0430625 241.661 0.00939857L252.137 0.00648567Z" fill="white"/>
<path d="M225.633 0.00648567L225.635 50.3779C225.635 52.6191 224.684 53.1816 222.775 53.1816H211.983V2.78693C211.983 1.12566 212.62 0.00939857 215.04 0.00939857L225.633 0.00648567Z" fill="white"/>
<path d="M0 7.33599C0 3.28191 0.00875697 0.000184211 6.6786 0.000184211H35.9967V5.11805C35.9967 5.48236 35.8245 5.81171 35.3137 5.81171L17.7444 5.80587C15.383 5.80587 14.195 6.9367 14.195 9.31494V22.8178H34.8671L34.87 28.1805C34.87 28.6556 34.5723 28.9062 34.1052 28.9062H14.195V50.3308C14.1512 52.3972 13.1179 53.219 10.8469 53.1782H0V7.33599Z" fill="white"/>
<path d="M57.1706 0.00146027V40.5335C57.1706 44.0134 57.6639 46.4528 60.11 47.8635C63.3881 49.7579 68.9399 49.787 72.2822 47.9159C74.5677 46.6423 75.4405 44.5963 75.4405 40.5451V2.70321C75.4405 1.00114 76.0914 0.00146027 78.4733 0.00146027H89.0837L89.0867 39.3356C89.0867 48.4726 83.3246 52.2206 78.231 53.6109C71.4532 55.4557 61.158 55.4849 54.7625 53.5672C47.1206 51.2705 43.5507 46.753 43.542 39.3385L43.5361 2.73235C43.5361 0.966162 44.1725 0.00146027 46.207 0.00146027H57.1706Z" fill="white"/>
<path d="M315.223 0.00939978C312.532 0.00939978 310.997 1.26264 310.39 3.66128L301.7 40.3287L301.463 40.3228L292.487 0.00939978H280.216C277.849 0.00939978 277.104 1.22475 277.104 3.10169V53.1816H282.289C283.123 53.1816 283.468 52.7678 283.468 51.9197V9.93038H284.288L295.383 53.1816H302.648C305.386 53.1816 306.405 52.0596 307.079 49.3578L317.039 9.93038H317.845L317.842 53.1816L327.536 53.1671C329.915 53.1671 331 52.2548 331 49.9203V0.00648687L315.223 0.00939978Z" fill="white"/>
<path d="M153.922 28.9043H140.278V53.1821H151.067C152.967 53.1821 153.925 52.6255 153.925 50.3784C153.925 50.3784 153.922 39.994 153.922 28.9043Z" fill="white"/>
<path d="M153.127 18.5299C153.605 18.1422 153.886 17.8508 153.921 17.0172V0.0111019H143.328C140.943 0.0111019 140.28 1.17399 140.28 2.82943V28.5762L153.127 18.5299Z" fill="#8F8F8F"/>
<path d="M106.354 48.9757C112.279 48.1392 114.249 44.6243 114.249 39.4424V2.89446C114.249 0.708584 115.434 0.000353925 116.964 0.000353925H127.893V34.5576C127.893 43.0563 126.1 47.3494 121.059 50.9721C118.435 52.852 113.847 54.9971 103.905 54.9971C98.2126 54.9971 95.6818 54.6765 95.3403 54.5978C94.8587 54.487 94.6631 54.1927 94.6631 53.7759V49.3138C97.0012 49.3808 102.355 49.544 106.354 48.9757Z" fill="white"/>
<path d="M174.591 0.00142224C167.927 0.00142224 167.924 3.28316 167.924 7.33723V21.0383C167.924 21.321 167.801 21.4347 167.673 21.56L158.341 28.9017H167.924V53.1766H178.765C181.036 53.2203 182.069 52.3955 182.107 50.332V28.9075H202.017C202.484 28.9075 202.785 28.6539 202.785 28.1818V22.8162H182.107V9.31327C182.107 6.93795 183.298 5.80421 185.657 5.80421L203.232 5.81003C203.737 5.81003 203.915 5.48361 203.915 5.1193V0.00142224H174.591Z" fill="white"/>
</g>
<defs>
<clipPath id="clip0_29_7040">
<rect width="331" height="55" fill="white"/>
</clipPath>
</defs>
</svg>
