<svg width="330" height="16" viewBox="0 0 330 16" fill="none" xmlns="http://www.w3.org/2000/svg">
<g clip-path="url(#clip0_29_6364)">
<path fill-rule="evenodd" clip-rule="evenodd" d="M16.4 0V6.3H3.8V0H0V16H3.8V9.5H16.4V16H20.2V0H16.4Z" fill="white"/>
<path fill-rule="evenodd" clip-rule="evenodd" d="M32.1994 0L23.3994 16H27.6994L29.3994 12.8H39.6994L41.3994 16H45.6994L36.8994 0H32.1994ZM34.5994 3.2L38.0994 9.8H30.9994L34.5994 3.2Z" fill="white"/>
<path fill-rule="evenodd" clip-rule="evenodd" d="M52.3 3.40029H59.4C60.8 3.40029 62.6 3.40029 62.6 5.70029C62.6 8.00029 60.7 8.00029 59.4 8.00029H52.3V3.40029ZM66.5 5.80029C66.5 2.50029 64.1 0.300293 60.5 0.300293H48.5V15.8003H52.3V11.3003H59L61.8 15.8003H66.3L63.1 10.8003C65.2 10.0003 66.5 8.20029 66.5 5.80029Z" fill="white"/>
<path fill-rule="evenodd" clip-rule="evenodd" d="M74.9 0.300293H71V15.8003H86.9V12.6003H74.9V0.300293Z" fill="white"/>
<path fill-rule="evenodd" clip-rule="evenodd" d="M90.7002 15.8003H107V12.7003H94.5002V9.20029H104V6.40029H94.5002V3.30029H107V0.300293H90.7002V15.8003Z" fill="white"/>
<path fill-rule="evenodd" clip-rule="evenodd" d="M120.6 7.20029L114.4 0.300293H109.7L118.7 10.4003V15.8003H122.5V10.4003L131.4 0.300293H126.7L120.6 7.20029Z" fill="white"/>
<path fill-rule="evenodd" clip-rule="evenodd" d="M172.699 8.00029C172.699 11.9003 170.799 12.7003 167.499 12.7003H161.599V3.40029H167.499C170.899 3.40029 172.699 4.10029 172.699 8.00029ZM168.999 0.300293H157.899V15.8003H168.999C174.599 15.8003 176.599 11.6003 176.599 8.00029C176.599 4.50029 174.599 0.300293 168.999 0.300293Z" fill="white"/>
<path fill-rule="evenodd" clip-rule="evenodd" d="M208.5 12.4003L202.4 0.300293H198L206.6 15.8003H211.1L219.8 0.300293H215.4L208.5 12.4003Z" fill="white"/>
<mask id="mask0_29_6364" style="mask-type:luminance" maskUnits="userSpaceOnUse" x="-24" y="0" width="353" height="16">
<path fill-rule="evenodd" clip-rule="evenodd" d="M-23.7002 16.0001H328.1V0.100098H-23.7002V16.0001Z" fill="white"/>
</mask>
<g mask="url(#mask0_29_6364)">
<path fill-rule="evenodd" clip-rule="evenodd" d="M223.399 15.8003H227.299V0.300293H223.399V15.8003Z" fill="white"/>
</g>
<mask id="mask1_29_6364" style="mask-type:luminance" maskUnits="userSpaceOnUse" x="-24" y="0" width="353" height="16">
<path fill-rule="evenodd" clip-rule="evenodd" d="M-23.7002 16.0001H328.1V0.100098H-23.7002V16.0001Z" fill="white"/>
</mask>
<g mask="url(#mask1_29_6364)">
<path fill-rule="evenodd" clip-rule="evenodd" d="M264.7 0.100098C260.2 0.100098 255.6 0.600098 255.6 4.6001C255.6 7.5001 257.1 9.1001 264.9 9.5001C270.1 9.8001 270.9 10.0001 270.9 11.2001C270.9 12.2001 270 12.9001 265.4 12.9001C260.4 12.9001 259.1 12.1001 258.9 10.8001H255C255.1 13.6001 256.6 16.0001 265.1 16.0001C270 16.0001 274.6 15.4001 274.6 11.0001C274.6 7.0001 270.5 6.7001 264.8 6.4001C260.2 6.1001 259.3 5.8001 259.3 4.7001C259.3 3.7001 260 3.2001 264.2 3.2001C268.3 3.2001 269.9 3.6001 270.1 5.0001H273.9C273.7 1.7001 270.7 0.100098 264.7 0.100098Z" fill="white"/>
</g>
<mask id="mask2_29_6364" style="mask-type:luminance" maskUnits="userSpaceOnUse" x="-24" y="0" width="353" height="16">
<path fill-rule="evenodd" clip-rule="evenodd" d="M-23.7002 16.0001H328.1V0.100098H-23.7002V16.0001Z" fill="white"/>
</mask>
<g mask="url(#mask2_29_6364)">
<path fill-rule="evenodd" clip-rule="evenodd" d="M293.4 8.0001C293.4 11.3001 291.6 12.7001 287.5 12.7001C283.3 12.7001 281.6 11.3001 281.6 8.0001C281.6 4.7001 283.3 3.3001 287.5 3.3001C291.7 3.3001 293.4 4.7001 293.4 8.0001ZM287.5 0.100098C281.1 0.100098 277.8 2.8001 277.8 8.0001C277.8 13.3001 281.1 16.0001 287.5 16.0001C293.9 16.0001 297.2 13.3001 297.2 8.0001C297.2 2.8001 293.9 0.100098 287.5 0.100098Z" fill="white"/>
</g>
<mask id="mask3_29_6364" style="mask-type:luminance" maskUnits="userSpaceOnUse" x="-24" y="0" width="353" height="16">
<path fill-rule="evenodd" clip-rule="evenodd" d="M-23.7002 16.0001H328.1V0.100098H-23.7002V16.0001Z" fill="white"/>
</mask>
<g mask="url(#mask3_29_6364)">
<path fill-rule="evenodd" clip-rule="evenodd" d="M317.1 0.300293V11.8003L305.9 0.300293H301.1V15.8003H304.9V4.40029L316.1 15.7003V15.8003H320.9V0.300293H317.1Z" fill="white"/>
</g>
<mask id="mask4_29_6364" style="mask-type:luminance" maskUnits="userSpaceOnUse" x="0" y="0" width="352" height="16">
<path fill-rule="evenodd" clip-rule="evenodd" d="M0 16.0001H351.8V0.100098H0V16.0001Z" fill="white"/>
</mask>
<g mask="url(#mask4_29_6364)">
<path fill-rule="evenodd" clip-rule="evenodd" d="M136.3 9.0001H150.3V6.6001H136.3V9.0001Z" fill="white"/>
</g>
<mask id="mask5_29_6364" style="mask-type:luminance" maskUnits="userSpaceOnUse" x="-24" y="0" width="353" height="16">
<path fill-rule="evenodd" clip-rule="evenodd" d="M-23.7002 16.0001H328.1V0.100098H-23.7002V16.0001Z" fill="white"/>
</mask>
<g mask="url(#mask5_29_6364)">
<path fill-rule="evenodd" clip-rule="evenodd" d="M247.7 8.00029C247.7 11.9003 245.8 12.7003 242.5 12.7003H236.6V3.40029H242.5C245.8 3.40029 247.7 4.10029 247.7 8.00029ZM243.9 0.300293H232.8V15.8003H243.9C249.5 15.8003 251.5 11.6003 251.5 8.00029C251.5 4.50029 249.5 0.300293 243.9 0.300293Z" fill="white"/>
</g>
<mask id="mask6_29_6364" style="mask-type:luminance" maskUnits="userSpaceOnUse" x="-24" y="0" width="353" height="16">
<path fill-rule="evenodd" clip-rule="evenodd" d="M-23.7002 16.0001H328.1V0.100098H-23.7002V16.0001Z" fill="white"/>
</mask>
<g mask="url(#mask6_29_6364)">
<path fill-rule="evenodd" clip-rule="evenodd" d="M192.399 9.80029H185.399L188.899 3.40029L192.399 9.80029ZM186.499 0.300293L177.899 15.8003H182.099L183.799 12.7003H193.999L195.699 15.8003H199.899L191.199 0.300293H186.499Z" fill="white"/>
</g>
<mask id="mask7_29_6364" style="mask-type:luminance" maskUnits="userSpaceOnUse" x="-24" y="0" width="353" height="16">
<path fill-rule="evenodd" clip-rule="evenodd" d="M-23.7002 16.0001H328.1V0.100098H-23.7002V16.0001Z" fill="white"/>
</mask>
<g mask="url(#mask7_29_6364)">
<path fill-rule="evenodd" clip-rule="evenodd" d="M325.9 2.0002H326.2C326.3 2.0002 326.5 2.0002 326.6 1.9002C326.7 1.8002 326.7 1.7002 326.7 1.6002C326.7 1.5002 326.7 1.4002 326.6 1.3002C326.5 1.2002 326.4 1.2002 326.2 1.2002H325.8V2.0002H325.9ZM325.7 3.1002V1.0002H326.3C326.5 1.0002 326.7 1.0002 326.8 1.1002C326.9 1.2002 327 1.3002 327 1.5002C327 1.7002 327 1.8002 326.9 1.9002C326.8 2.0002 326.7 2.1002 326.6 2.1002L327.2 3.0002H326.9L326.4 2.1002H326V3.0002H325.7V3.1002ZM326.3 3.6002C326.5 3.6002 326.7 3.6002 326.9 3.5002C327.1 3.4002 327.3 3.3002 327.4 3.2002C327.5 3.1002 327.7 2.9002 327.7 2.7002C327.8 2.5002 327.8 2.3002 327.8 2.1002C327.8 1.9002 327.8 1.7002 327.7 1.5002C327.6 1.3002 327.5 1.1002 327.4 1.0002C327.3 0.900195 327.1 0.700195 326.9 0.700195C326.7 0.600195 326.5 0.600195 326.3 0.600195C326.1 0.600195 325.9 0.600195 325.7 0.700195C325.5 0.800195 325.3 0.900195 325.2 1.0002C325.1 1.1002 324.9 1.3002 324.9 1.5002C324.8 1.7002 324.8 1.9002 324.8 2.1002C324.8 2.3002 324.8 2.5002 324.9 2.7002C325 2.9002 325.1 3.1002 325.2 3.2002C325.3 3.3002 325.5 3.5002 325.7 3.5002C325.8 3.6002 326.1 3.6002 326.3 3.6002ZM326.3 3.8002C326 3.8002 325.8 3.8002 325.6 3.7002C325.4 3.6002 325.2 3.5002 325 3.3002C324.8 3.1002 324.7 3.0002 324.6 2.7002C324.5 2.5002 324.5 2.3002 324.5 2.0002C324.5 1.7002 324.5 1.5002 324.6 1.3002C324.7 1.1002 324.8 0.900195 325 0.700195C325.2 0.500195 325.4 0.400195 325.6 0.300195C325.8 0.200195 326.1 0.200195 326.3 0.200195C326.6 0.200195 326.8 0.200195 327 0.300195C327.2 0.400195 327.4 0.500195 327.6 0.700195C327.8 0.900195 327.9 1.0002 328 1.3002C328.1 1.5002 328.1 1.7002 328.1 2.0002C328.1 2.2002 328.1 2.5002 328 2.7002C327.9 2.9002 327.8 3.1002 327.6 3.3002C327.4 3.5002 327.2 3.6002 327 3.7002C326.8 3.8002 326.6 3.8002 326.3 3.8002Z" fill="white"/>
</g>
</g>
<defs>
<clipPath id="clip0_29_6364">
<rect width="329.1" height="16" fill="white"/>
</clipPath>
</defs>
</svg>
