<svg width="125" height="55" viewBox="0 0 125 55" fill="none" xmlns="http://www.w3.org/2000/svg">
<path d="M13.3223 16.7334V55L0 46.4795V7.5918L13.3223 16.7334ZM35.3232 47.0977L22.4639 38.5781V37.0283L35.3232 28.5078V47.0977ZM78.5557 17.8389C81.1903 17.8389 83.5139 18.6153 85.2188 20.165C87.0776 21.7122 87.8515 24.6562 87.8516 28.8398L87.6982 28.6836H75.3037V29.7686C75.3037 31.4714 75.6124 32.7126 76.2324 33.3311C76.8523 33.9535 77.6266 34.2626 78.5557 34.2627C80.5698 34.2627 81.6546 33.1769 81.9639 30.8535L87.8516 31.1631C86.7666 35.6561 83.6693 37.9824 78.5557 37.9824C75.3028 37.9824 72.9792 37.051 71.2744 35.3457C69.569 33.4868 68.7959 31.163 68.7959 28.2197C68.7959 24.8115 69.7253 22.3321 71.4307 20.4736C73.1334 18.7685 75.6121 17.8389 78.5557 17.8389ZM50.8242 25.4307H60.4297V18.1494H65.2314V37.9805H60.4297V29.6133H50.8242V37.9805H46.0225V18.1494H50.8242V25.4307ZM102.726 22.4873C101.02 22.4873 99.6264 22.9518 98.541 24.0371C97.4582 24.9658 96.8379 26.3599 96.8379 27.7539V37.8262H90.9512V27.7539C90.9512 24.8106 92.0361 22.1772 94.3594 20.1631C96.6827 18.1492 99.4711 17.0645 102.726 17.0645V22.4873ZM114.189 17.6826C116.98 17.6826 119.303 18.614 121.161 20.626C123.175 22.4865 124.104 24.9662 124.104 27.7539C124.104 30.5414 123.019 32.8668 121.161 34.8809C119.303 36.895 116.98 37.8242 114.189 37.8242C111.402 37.8242 109.079 36.8955 107.22 34.8809C105.206 33.0219 104.276 30.5415 104.276 27.7539C104.276 24.9662 105.359 22.6406 107.22 20.626C109.078 18.614 111.401 17.6826 114.189 17.6826ZM114.189 22.7959C112.95 22.7959 111.712 23.2626 110.78 24.1924C109.851 25.1216 109.387 26.36 109.387 27.7539C109.387 29.1505 109.851 30.3866 110.78 31.3184C111.712 32.4012 112.795 32.8682 114.189 32.8682C115.43 32.8681 116.668 32.2476 117.6 31.3184C118.512 30.4037 118.975 29.1957 118.992 27.8311C118.975 26.4665 118.512 25.2575 117.6 24.3457C116.668 23.2625 115.586 22.7959 114.189 22.7959ZM35.0127 8.98535V18.127L21.5352 26.0283V0L35.0127 8.98535ZM78.4004 21.4023C76.3883 21.4023 75.3037 22.7964 75.3037 25.7402H81.3438L81.5 25.584V25.1211C81.4999 22.6403 80.4149 21.4024 78.4004 21.4023Z" fill="white"/>
</svg>
