<svg width="324" height="55" viewBox="0 0 324 55" fill="none" xmlns="http://www.w3.org/2000/svg">
<path d="M23.5782 0.145335C25.609 -0.14876 31.0659 0.0224576 33.1212 0.488108C49.3428 4.06644 58.7868 20.5845 53.5508 36.2449C52.0584 40.6563 49.9298 43.9404 46.2842 47.4696C37.109 56.3414 22.9426 57.4932 12.1036 50.2879C9.51004 48.5478 5.81516 44.7248 4.17585 42.078C0.0164651 35.2893 -1.08464 27.3244 1.09284 19.825C4.07782 9.5073 12.8617 1.812 23.5782 0.145335ZM27.9581 32.2498C27.5901 32.1033 24.8246 33.133 17.1192 36.2938C11.4296 38.6419 6.73916 40.5753 6.67194 40.6561C6.4762 40.8521 8.75159 43.745 10.293 45.2645C15.4556 50.3129 23.1141 52.9591 30.0382 52.1258C35.5676 51.4641 39.7759 49.6018 44.0821 45.9012C45.6725 44.5533 48.5349 40.8524 48.2413 40.5828C48.1374 40.458 43.638 38.5965 38.2589 36.4168C32.876 34.2356 28.2517 32.3479 27.9581 32.2498ZM220.516 20.8328C224.879 20.833 228.151 23.0148 228.151 25.9237C228.151 27.4388 225.485 27.136 224.818 25.5604C223.485 22.5301 217.243 22.8936 217.242 25.9237C217.242 27.6812 218.152 28.2879 222.516 29.3182C227 30.3485 228.758 31.8634 228.758 34.6512C228.697 38.53 225.909 40.8328 221.242 40.8328C216.576 40.8328 214.515 39.4391 213.303 35.4998C212.939 34.3483 213.122 34.1658 214.758 34.1658C216.152 34.1659 216.576 34.4696 216.758 35.4998C217.304 39.1965 225.727 39.0147 225.728 35.3182C225.728 33.8637 223.728 32.6511 219.728 31.742C213.606 30.2875 211.909 26.651 215.667 22.8934C217.424 21.136 218.152 20.8328 220.516 20.8328ZM272.516 22.0447C278.091 18.651 285.122 22.8333 285.122 29.4393V31.742H278.092C271.91 31.742 271.122 31.8633 271.425 32.7117C271.607 33.2572 271.788 33.9848 271.788 34.409C271.788 36.0453 274.273 37.8026 276.516 37.8026C279.001 37.8026 281.485 36.4084 281.485 35.0145C281.486 34.4692 282.092 34.1658 283.304 34.1658C284.758 34.1659 285 34.3486 284.697 35.1971C283.425 38.7119 280.273 40.8328 276.334 40.8328C271.183 40.8328 268.152 37.2568 268.152 31.075C268.152 26.5904 269.425 23.9235 272.516 22.0447ZM107.121 21.8026C109.727 20.5299 112.879 20.5905 115.242 22.0447C117.848 23.6205 119.001 25.4995 119.425 28.8934L119.849 31.742H112.758C105.789 31.742 105.728 31.7421 105.728 33.1961C105.728 33.984 106.273 35.3183 107 36.2274C107.97 37.4999 108.758 37.8026 110.879 37.8026C113.061 37.8026 113.788 37.4994 115 35.9842C116.576 34.1056 119.06 33.4997 119.061 35.0145C119.061 36.2266 116.758 38.9539 114.818 39.9237C111 41.863 105.91 40.4692 103.485 36.7723C102.698 35.6208 102.395 33.9841 102.395 31.1356C102.395 26.4692 103.97 23.3783 107.121 21.8026ZM198.03 21.8026C200.636 20.5299 203.788 20.5905 206.151 22.0447C208.757 23.6205 209.91 25.4995 210.334 28.8934L210.758 31.742H203.667C195.788 31.742 195.485 31.9845 197.849 35.8631C198.879 37.5601 199.364 37.8026 201.728 37.8026C203.97 37.8026 204.637 37.4994 205.909 35.9842C207.485 34.1056 209.969 33.4997 209.97 35.0145C209.97 36.2266 207.667 38.9539 205.728 39.9237C201.728 41.9842 196.212 40.2272 194.212 36.2879C193.727 35.2576 193.304 32.8934 193.304 30.8328C193.304 26.4694 195 23.3177 198.03 21.8026ZM189.364 40.2274H187.849C186.94 40.2274 186.334 39.8634 186.334 39.3182C186.334 38.591 185.97 38.6514 184.395 39.6209C178.758 43.0149 172.758 38.6507 172.758 31.1356C172.758 24.651 176.274 20.5296 181.364 21.0145C182.819 21.1964 184.515 21.8031 185.121 22.3485C186.333 23.4394 186.334 23.3783 186.334 18.8328C186.334 14.2875 186.394 14.1658 187.849 14.1658H189.364V40.2274ZM157.242 22.2274C159.606 20.591 162.637 20.4692 165.546 21.8026C168.273 23.1359 169.303 24.8331 169.788 28.6512L170.151 31.742H163.061C159.121 31.742 156.03 31.9849 156.03 32.2879C156.031 33.4395 157.182 35.8026 158.151 36.7723C160.273 38.8935 165.485 37.6208 166.455 34.7723C166.577 34.4088 167.424 34.1668 168.333 34.2879L169.97 34.4696L168.879 36.5301C165.849 42.2269 156.818 42.1663 153.849 36.5301C152.455 33.8029 152.576 28.0453 154.03 25.5604C154.697 24.4696 156.091 22.9547 157.242 22.2274ZM138.576 22.0447C141.001 20.5903 145.486 20.4087 147.425 21.8026C148.758 22.7117 150.576 25.6206 150.576 26.8934C150.576 27.1964 149.909 27.4998 149.061 27.4998C148.03 27.4997 147.303 27.0144 146.818 25.9842C145.424 22.9542 140.879 22.8935 139 25.8631C137.424 28.4086 137.607 34.6513 139.304 36.5301C141.364 38.7721 145.243 38.1057 146.697 35.3182C147.303 34.1062 148.03 33.5605 149.121 33.5604C150.454 33.5604 150.576 33.7421 150.274 34.8934C147.91 42.7116 137 42.5904 134.818 34.8328C133.425 29.6814 135.001 24.2265 138.576 22.0447ZM81.7882 24.2879C83.7275 29.9241 85.4852 34.651 85.6671 34.8934C85.849 35.1354 87.6671 30.5297 89.6671 24.7117L93.2423 14.1658H98.4542V40.2274H94.8184L94.7579 29.742L94.6973 19.3182L92.0303 27.1961C87.5457 40.4683 87.6667 40.2274 85.7276 40.2274C84.0912 40.2274 83.9695 39.9234 81.2423 32.1658C79.7272 27.8024 78.0308 23.0754 77.6065 21.742C76.758 19.439 76.6973 19.9845 76.6973 29.742L76.6368 40.2274H73.0001V14.1658H78.3331L81.7882 24.2879ZM131.546 20.8328C132.758 20.8329 133 21.1361 133 22.6512C133 24.2875 132.818 24.4696 131.182 24.4696C130.151 24.4697 128.879 25.0148 128.151 25.8026C127.061 26.954 126.94 27.9241 126.94 33.6815V40.2274H123.304V21.4393H124.758C125.546 21.4393 126.394 21.8636 126.576 22.409C126.879 23.1965 127.122 23.1961 128.516 22.1053C129.425 21.3782 130.758 20.8328 131.546 20.8328ZM251.97 14.1658C257.667 14.1658 259.061 14.3484 260.758 15.3787C264.152 17.4394 264.818 22.2874 262.03 24.8328L260.818 25.9237L262.697 27.4998C266.576 30.6514 265.364 37.3181 260.576 39.3787C259.182 39.9242 256.273 40.2274 251.788 40.2274H245.121V14.1658H251.97ZM294.395 22.0447C297.304 20.2268 300.576 20.4695 302.758 22.5906L304.516 24.3485V40.2274H301.485V33.3787C301.485 25.3183 300.879 23.8632 297.485 23.8631C296.031 23.8631 294.879 24.3484 293.909 25.3787C292.455 26.7725 292.395 27.2577 292.395 33.5604V40.2274H289.364V21.4393H290.879C291.788 21.4393 292.395 21.803 292.395 22.3485C292.395 23.0754 292.759 23.0143 294.395 22.0447ZM316.031 21.4393C323.061 21.4393 323.304 21.4996 323.304 22.7723C323.304 23.4996 321.062 26.8332 318.092 30.4696L312.879 36.8934L318.395 37.075C323.788 37.2568 323.909 37.2572 323.909 38.7117V40.2274H308.152V38.7723C308.153 37.8631 310.091 34.954 313.546 30.7723L319.001 24.1658L313.849 23.9842C309.243 23.863 308.758 23.6814 308.758 22.6512C308.758 21.4997 309.183 21.4393 316.031 21.4393ZM26.6368 3.13459C26.6368 2.54669 26.661 2.54653 24.2393 2.86506C18.9789 3.55128 13.7915 6.12475 9.99909 9.97248C4.49393 15.5358 1.90012 23.1335 2.95221 30.5594C3.17243 32.1034 3.5883 34.064 3.8819 34.8973C4.66486 37.2255 5.54636 39.1613 5.8155 39.0633C5.96757 39.0345 9.92864 35.9479 14.6719 32.2498C19.3903 28.5521 23.3521 25.4668 23.4561 25.3885C23.6274 25.266 26.6368 4.23745 26.6368 3.13459ZM33.7325 3.47834C31.2368 2.86564 28.3497 2.49772 28.3497 2.79182C28.3255 2.8919 29.0346 7.96413 29.8663 14.0653L31.4083 25.1922L40.2901 32.1522C45.208 35.9753 49.2938 39.0636 49.3917 38.9901C49.4896 38.9165 49.8811 38.1322 50.2481 37.2254C52.6459 31.2945 52.89 25.3391 50.9571 19.6287C48.2901 11.6637 41.6843 5.46351 33.7325 3.47834ZM183.607 24.2274C179.849 22.8334 176.697 25.0755 176.212 29.5604C175.788 32.9542 176.334 35.0755 177.849 36.5906C179.061 37.8027 181.667 38.1665 183.607 37.4393C187.182 36.0452 187.182 25.6218 183.607 24.2274ZM248.758 37.1961H253.607C258.031 37.1961 258.637 37.0147 259.97 35.6815C262.03 33.6815 261.97 31.0151 259.909 29.3787C258.576 28.3484 257.425 28.1053 253.546 28.1053H248.758V37.1961ZM236.213 28.2274C240.455 28.4092 240.576 28.4694 240.758 30.0447L240.94 31.742H231.788V28.0447L236.213 28.2274ZM114.758 25.4393C113 23.1969 109.303 23.1969 107.242 25.4393C106.394 26.3481 105.728 27.5597 105.728 28.1658C105.728 29.1961 106.273 29.3182 110.879 29.3182C115.485 29.3182 116.03 29.1961 116.03 28.1658C116.03 27.5597 115.485 26.3481 114.758 25.4393ZM165.121 25.075C162.454 22.4087 157.545 24.045 156.333 27.9237C155.969 29.3176 156.03 29.3182 161.121 29.3182C166.273 29.3182 166.333 29.3177 166.333 27.8026C166.333 26.9541 165.788 25.7417 165.121 25.075ZM202.212 23.9237C199.182 23.9843 198.576 24.288 197.546 26.2879C196.031 29.1361 196.273 29.3182 201.788 29.3182C206.394 29.3182 206.94 29.1961 206.94 28.1658C206.939 27.5597 206.394 26.3481 205.667 25.4393C204.697 24.2272 203.909 23.863 202.212 23.9237ZM280.274 25.075C277.667 22.4691 272.273 24.1663 271.667 27.8026C271.485 28.8935 271.849 29.0153 276.516 29.1971C281.485 29.3789 281.485 29.3783 281.485 27.8026C281.485 26.9541 280.94 25.7417 280.274 25.075ZM248.758 25.075H253.304C258.394 25.075 260.274 23.984 260.274 21.1356C260.273 20.2871 259.727 19.0756 259.061 18.409C258.091 17.4394 257.061 17.1961 253.304 17.1961H248.758V25.075Z" fill="white"/>
</svg>
