<svg width="253" height="55" viewBox="0 0 253 55" fill="none" xmlns="http://www.w3.org/2000/svg">
<g clip-path="url(#clip0_29_7088)">
<path d="M200.612 21.5303H166.241V34.3484H200.612V21.5303Z" fill="white"/>
<path fill-rule="evenodd" clip-rule="evenodd" d="M253 0.553258H240.435C240.435 8.80249 233.751 15.4875 225.502 15.4875C217.252 15.4875 210.568 8.80249 210.568 0.553258L180.5 0.480957C173.099 0.480957 167.022 6.14266 166.359 13.37H201.265C204.928 20.1885 211.383 25.3204 219.103 27.1599V54.4479H231.617L231.62 27.3699C243.862 24.5877 252.999 13.6383 252.999 0.554648L253 0.553258ZM137.383 0.553258H119.906L96.0225 23.5671L128.063 54.4465H145.685L114.081 23.1292L137.383 0.553258Z" fill="white"/>
<path fill-rule="evenodd" clip-rule="evenodd" d="M160.49 41.6312C154.702 41.6312 150.734 37.809 150.734 32.0166V0.553223H138.209L138.136 34.2009C138.136 45.7857 146.944 54.4479 158.526 54.4479H200.613L200.538 41.6312H160.492H160.49ZM240.591 44.1311C237.999 44.1311 235.807 46.1249 235.807 48.8265C235.807 51.528 237.999 53.5469 240.591 53.5469C243.182 53.5469 245.348 51.5544 245.348 48.8265C245.348 46.0985 243.156 44.1311 240.591 44.1311ZM240.591 52.7627C238.434 52.7627 236.752 51.0956 236.752 48.8279C236.752 46.5601 238.434 44.9181 240.591 44.9181C242.747 44.9181 244.398 46.5991 244.398 48.8279C244.398 51.0567 242.719 52.7627 240.591 52.7627Z" fill="white"/>
<path fill-rule="evenodd" clip-rule="evenodd" d="M241.351 49.1645C242.147 49.0658 242.758 48.6403 242.758 47.6712C242.758 46.6006 242.122 46.1251 240.838 46.1251H238.773V51.5574H239.594V49.2034H240.539L241.974 51.5574H242.893L241.35 49.1645H241.351ZM239.596 48.4971V46.8161H240.715C241.287 46.8161 241.898 46.9399 241.898 47.6128C241.898 48.447 241.275 48.4971 240.577 48.4971H239.596ZM76.7219 0.553379C64.6353 0.553379 54.8649 9.33096 51.3685 13.847C46.6293 5.57411 37.7124 0 27.4971 0C12.3104 0 0 12.3134 0 27.5007C0 42.688 12.3104 55 27.4971 55C40.3093 55 51.0738 46.2377 54.1267 34.3776C60.0977 15.8797 72.4998 13.3715 77.7423 13.3715H83.1308V21.4552H75.5569C68.1568 21.4552 62.0801 27.1169 61.417 34.3456H83.1308V54.4466H95.6566V0.553379H76.7219ZM27.3942 42.435C19.1475 42.435 12.4619 35.7499 12.4619 27.5007C12.4619 19.2515 19.1475 12.5664 27.3942 12.5664C35.641 12.5664 42.3265 19.2528 42.3265 27.5007C42.3265 35.7485 35.641 42.435 27.3942 42.435Z" fill="white"/>
</g>
<defs>
<clipPath id="clip0_29_7088">
<rect width="253" height="55" fill="white"/>
</clipPath>
</defs>
</svg>
