<?xml version="1.0" encoding="UTF-8"?>
<svg id="Layer_1" xmlns="http://www.w3.org/2000/svg" xmlns:xlink="http://www.w3.org/1999/xlink" version="1.1" viewBox="0 0 55 55">
  <!-- Generator: Adobe Illustrator 29.3.1, SVG Export Plug-In . SVG Version: 2.1.0 Build 151)  -->
  <defs>
    <style>
      .st0 {
        fill: none;
      }

      .st1 {
        fill: none;
      }

      .st2 {
        fill: #191919;
      }
    </style>
  </defs>
  <rect class="st0" width="55" height="55"/>
  <path class="st1" d="M46.8,0H8.2C3.7,0,0,3.7,0,8.2v38.5c0,4.6,3.7,8.2,8.2,8.2h38.5c4.6,0,8.2-3.7,8.2-8.2V8.2c0-4.6-3.7-8.2-8.2-8.2Z"/>
  <path class="st2" d="M42.9,18.9c0,.9-.2,1.9-.5,2.7-.4.9-.9,1.6-1.5,2.3-.7.7-1.4,1.2-2.3,1.5-.9.4-1.8.5-2.7.5h-14.2c-2.7,0-5.2,1-7.1,2.9v-10c0-1.9.7-3.7,2.1-5,1.3-1.3,3.1-2.1,5-2.1h14.2c1.9,0,3.7.7,5,2.1,1.3,1.3,2.1,3.1,2.1,5Z"/>
  <path class="st2" d="M21.6,29h7.1v7.1c0,1.4-.4,2.8-1.2,3.9-.8,1.2-1.9,2.1-3.2,2.6-1.3.5-2.7.7-4.1.4s-2.6-1-3.6-1.9c-1-1-1.7-2.3-1.9-3.6-.3-1.4-.1-2.8.4-4.1s1.4-2.4,2.6-3.2,2.5-1.2,3.9-1.2Z"/>
</svg>