<svg width="240" height="16" viewBox="0 0 240 16" fill="none" xmlns="http://www.w3.org/2000/svg">
<path d="M26.7734 0C29.3386 4.92934e-05 30.7196 1.38124 30.7197 3.94629V7.83984C30.7197 10.4051 29.3387 11.7871 26.7734 11.7871H3.62695V16H0V0H26.7734ZM61.4932 0C64.0584 0 65.4403 1.38119 65.4404 3.94629V12.0537C65.4403 14.6188 64.0584 16 61.4932 16H39.2529C36.688 15.9999 35.3068 14.6187 35.3066 12.0537V3.94629C35.3068 1.38132 36.688 0.000132821 39.2529 0H61.4932ZM96.8535 0C99.4187 7.66779e-05 100.8 1.38126 100.8 3.94629V6.62109C100.8 9.07744 99.5328 10.4476 97.1729 10.5596C99.298 11.4533 100.792 13.552 100.8 16H97.1729C97.1729 13.12 95.84 11.7871 92.96 11.7871H73.707V16H70.0801V0H96.8535ZM135.36 2.98633H109.44C109.024 2.98633 108.8 3.21095 108.8 3.62695V5.86621C108.8 6.28221 109.024 6.50684 109.44 6.50684H131.947C134.512 6.50693 135.893 7.88802 135.893 10.4531V12.0537C135.892 14.6188 134.512 15.9999 131.947 16H105.707V13.0137H131.627C132.043 13.0137 132.267 12.789 132.267 12.373V10.1328C132.266 9.71715 132.043 9.49316 131.627 9.49316H109.12C106.555 9.49316 105.173 8.11207 105.173 5.54688V3.94629C105.173 1.38119 106.555 0 109.12 0H135.36V2.98633ZM169.973 3.51953H144.693C144.277 3.51953 144.053 3.74416 144.053 4.16016V11.8398C144.053 12.2558 144.277 12.4805 144.693 12.4805H169.973V16H144.373C141.808 16 140.427 14.6188 140.427 12.0537V3.94629C140.427 1.38119 141.808 0 144.373 0H169.973V3.51953ZM178.24 6.24023H199.947V0H203.573V16H199.947V9.75977H178.24V16H174.613V0H178.24V6.24023ZM240 2.98633H211.893V6.50684H240V9.49316H211.893V13.0137H240V16H208.267V0H240V2.98633ZM39.5732 3.51953C39.1573 3.51955 38.9336 3.74418 38.9336 4.16016V11.8398C38.9336 12.2558 39.1573 12.4804 39.5732 12.4805H61.1729C61.5889 12.4805 61.8135 12.2558 61.8135 11.8398V4.16016C61.8135 3.74416 61.5889 3.51953 61.1729 3.51953H39.5732ZM3.62695 3.51953V8.2666H26.4531C26.869 8.2666 27.0936 8.04277 27.0938 7.62695V4.16016C27.0938 3.74416 26.8691 3.51953 26.4531 3.51953H3.62695ZM73.707 8.2666H96.5332C96.9491 8.2666 97.1727 8.04277 97.1729 7.62695V4.16016C97.1729 3.74416 96.9492 3.51953 96.5332 3.51953H73.707V8.2666Z" fill="white"/>
</svg>
