<svg width="264" height="55" viewBox="0 0 264 55" fill="none" xmlns="http://www.w3.org/2000/svg">
<g clip-path="url(#clip0_29_7114)">
<path d="M182.38 22C184.58 18.26 181.5 15.73 178.53 15.73H148.83C143.44 15.73 141.46 18.7 139.7 21.78L133.43 32.67C131.23 36.41 134.31 38.94 137.28 38.94H166.98C172.37 38.94 174.35 35.97 176.11 32.89L182.38 22ZM161.26 33.22C160.93 33.77 160.27 34.65 158.73 34.65H150.37C146.96 34.65 148.17 32.34 148.72 31.57L154.44 21.67C154.77 21.12 155.43 20.24 156.97 20.24H165.33C168.74 20.24 167.53 22.55 166.98 23.32L161.26 33.22Z" fill="white"/>
<path d="M56.2098 23.5398C54.0098 27.2798 57.0898 29.8098 60.0598 29.8098H76.4498C79.8598 29.8098 78.6498 32.1198 78.0998 32.8898C77.6598 33.7698 77.2198 34.5398 77.2198 34.5398H49.8298L47.2998 38.9398H89.2098L93.7198 31.2398C95.9198 27.4998 92.8398 24.9698 89.8698 24.9698H73.4798C70.0698 24.9698 71.2798 22.6598 71.8298 21.8898L72.8198 20.2398H98.9998L101.53 15.8398H66.2198C60.8298 15.8398 58.8498 18.8098 57.0898 21.8898L56.2098 23.5398Z" fill="white"/>
<path d="M117.37 21.5601C117.7 21.0101 118.36 20.1301 119.9 20.1301H136.51L139.04 15.6201H111.76C106.37 15.6201 104.39 18.5901 102.63 21.6701L96.3595 32.5601C94.1595 36.3001 97.2395 38.8301 100.21 38.8301H125.73L128.26 34.4301C123.42 34.4301 115.83 34.4301 113.41 34.4301C110 34.4301 111.21 32.1201 111.76 31.3501L117.37 21.5601Z" fill="white"/>
<path d="M187.77 15.73L185.24 20.13H198.11L187.33 38.94H201.96L212.85 20.13H223.08L225.61 15.73H187.77Z" fill="white"/>
<path d="M228.91 15.73L226.38 20.13H236.28L225.5 38.94H240.13L251.02 20.13H261.25L263.78 15.73H228.91Z" fill="white"/>
<path d="M16.7197 34.8702C17.5997 33.3302 17.5997 31.4602 16.7197 29.8102L12.8697 23.2102C12.5397 22.6602 12.4297 22.1102 12.4297 21.5602C12.4297 21.0102 12.5397 20.4602 12.8697 19.9102L17.1597 12.5402C17.1597 12.5402 17.3797 11.9902 18.2597 11.4402C19.1397 10.8902 20.0197 10.8902 20.0197 10.8902H30.5797L36.5197 0.660156H15.3997C13.5297 0.660156 11.8797 1.65016 10.8897 3.08016L3.07969 16.7202C1.97969 18.4802 1.42969 20.6802 1.42969 22.8802C1.42969 25.1902 1.97969 27.1702 3.07969 29.0402L11.5497 43.6702L16.7197 34.8702Z" fill="white"/>
<path d="M39.1597 37.95C40.2597 36.19 40.8097 33.99 40.8097 31.79C40.8097 29.48 40.2597 27.5 39.1597 25.63L30.6897 11L25.5197 19.8C24.6397 21.34 24.6397 23.21 25.5197 24.86L29.3697 31.46C29.6997 32.01 29.8097 32.56 29.8097 33.11C29.8097 33.66 29.6997 34.21 29.3697 34.76L25.0797 42.13C25.0797 42.13 24.7497 42.68 23.9797 43.23C23.0997 43.78 22.2197 43.78 22.2197 43.78H11.6597L5.71973 54.01H26.8397C28.7097 54.01 30.3597 53.02 31.3497 51.59L39.1597 37.95Z" fill="white"/>
</g>
<defs>
<clipPath id="clip0_29_7114">
<rect width="264" height="55" fill="white"/>
</clipPath>
</defs>
</svg>
