<svg width="405" height="55" viewBox="0 0 405 55" fill="none" xmlns="http://www.w3.org/2000/svg">
<path fill-rule="evenodd" clip-rule="evenodd" d="M111.487 0C123.485 0 133.092 3.01882 140.433 9.66882C142.905 11.9242 144.872 14.6745 146.207 17.7405C147.542 20.8065 148.215 24.1193 148.181 27.4624C148.165 30.8089 147.47 34.1175 146.138 37.1885C144.806 40.2594 142.866 43.0293 140.433 45.3312C133.592 51.6624 122.852 55 111.487 55C100.14 55 89.6248 51.6249 82.6151 45.3312C80.1085 43.082 78.1111 40.3247 76.7566 37.2433C75.4021 34.1619 74.7216 30.8274 74.7604 27.4624C74.7526 24.1114 75.4475 20.7958 76.8003 17.729C78.1531 14.6623 80.1338 11.9123 82.6151 9.65618C89.1241 3.74995 100.64 8.43268e-06 111.487 0ZM111.487 7.14993C105.553 7.14993 99.814 9.26247 95.9649 13.0625C92.2535 16.7312 90.332 21.925 90.332 27.4374C90.2763 30.0859 90.7453 32.7193 91.712 35.1862C92.6786 37.6531 94.124 39.905 95.9649 41.8124C99.814 45.6436 105.516 47.7623 111.487 47.7623C117.501 47.7623 123.084 45.6874 126.983 41.8124C130.882 37.9374 132.654 33.2374 132.654 27.4374C132.653 21.8999 130.707 16.7249 126.983 13.0625C123.134 9.28122 117.42 7.14993 111.487 7.14993Z" fill="white"/>
<path d="M28.6337 0C39.3298 0.0437521 48.0546 3.53114 51.1589 5.14364C52.4106 5.82485 53.0364 4.99997 53.0364 4.37498V2.43115H59.9211V19.1874H53.7436C53.2025 16.698 51.8593 14.4544 49.9196 12.8C48.7297 11.8678 47.4257 11.0907 46.0391 10.4875C40.8783 8.32167 35.3265 7.23885 29.7289 7.30633C23.9458 7.30634 18.4006 8.37494 15.653 10.0937C13.9257 11.1749 13.0495 12.5124 13.0495 14.0936C13.0495 16.3124 14.9647 17.2188 15.9035 17.5125C19.0016 18.4688 26.7562 19.1124 31.2249 19.5749C35.4871 19.9999 44.3994 21.2125 48.3674 22.1812C50.4541 22.7062 52.4898 23.4153 54.4508 24.3001C56.275 25.1342 57.943 26.2734 59.3827 27.6687C61.9719 30.3376 63.4081 33.9153 63.382 37.6312C63.3974 39.5872 62.9584 41.52 62.0994 43.2779C61.2405 45.0358 59.9849 46.5708 58.4315 47.7623C55.6697 49.8565 52.5317 51.4033 49.1873 52.3187C44.1508 53.872 38.8984 54.6125 33.6281 54.5124C28.6337 54.5124 26.0362 53.9061 22.0181 53.0686C18.1789 52.2317 14.4309 51.022 10.8276 49.4563C10.662 49.3563 10.4726 49.302 10.279 49.2994C10.0854 49.2968 9.89459 49.3458 9.72628 49.4413C9.55798 49.5368 9.41821 49.6754 9.32136 49.8428C9.22451 50.0102 9.17404 50.2004 9.17524 50.3938V52.9999H1.52709V33.75H8.41172C8.45577 35.6947 9.07651 37.5827 10.1954 39.175C12.968 42.5562 15.941 43.8874 18.7761 44.8999C23.5679 46.4475 28.5565 47.304 33.5906 47.4436C41.1886 47.4436 45.4195 45.5063 46.0329 45.2625C46.6463 45.0188 50.17 43.8937 50.17 40.1437C50.17 36.3937 46.8216 35.7061 44.8313 35.1998C42.3278 34.5311 36.2193 33.9438 29.9167 33.2813C23.6142 32.6188 17.2867 31.6125 14.3263 30.9875C7.70458 29.5375 5.16967 27.075 3.59873 25.625C1.27947 23.1619 -0.00811523 19.9059 3.84901e-05 16.525C3.84901e-05 10.0688 4.42503 6.17508 9.85759 3.75008C15.6782 1.13759 22.569 0 28.6337 0Z" fill="white"/>
<path fill-rule="evenodd" clip-rule="evenodd" d="M364.407 1.36423C371.628 0.923189 376.473 4.20118 379.554 8.96286C380.618 10.6615 381.533 12.6602 382.197 14.5161C384.524 10.8285 386.875 7.05877 389.255 3.33571H402.643C395.488 14.6078 390.683 22.2326 386.537 28.583C387.192 30.8419 388.648 35.5296 389.93 39.2513C391.702 44.3935 393.716 48.8128 402.737 48.1698C403.562 48.1109 404.311 48.0554 405 48.0024C403.081 50.3874 399.512 53.4729 393.877 53.4729C384.785 53.4729 380.749 46.5401 379.185 39.3056C377.077 41.9152 370.036 47.7682 366.726 49.4956C361.851 52.0409 356.059 54.092 348.324 53.5063C338.536 52.7659 329.902 46.013 330.694 34.2235C331.286 25.4164 336.492 17.6411 341.829 12.3172C347.65 6.51101 354.861 1.94758 364.407 1.36423ZM373.13 19.149C371.496 13.338 369.131 6.40323 362.706 6.91795C360.036 7.13186 358.111 8.18975 356.83 9.07778C353.241 11.5631 350.092 15.6862 347.396 20.339C344.765 24.8785 342.518 30.1143 342.138 35.7656C341.651 43.004 344.735 48.4188 351.726 47.336C354.538 46.9003 357.216 45.2971 359.304 43.7879C367.136 38.1265 372.824 28.7922 374.656 26.1092C374.408 24.6503 373.894 21.8764 373.13 19.149Z" fill="white"/>
<path d="M213.422 33.3938L213.078 12.9812C213.04 10.3 212.552 9.18127 209.648 9.18125H203.327V3.07488H232.117V9.18125H225.94C222.986 9.18125 222.81 10.1312 222.76 12.9812L223.28 51.9873H213.422L174.662 17.4501V41.9561C174.693 44.6249 174.819 45.8812 177.566 45.8812H184.451V51.9873H156.23V45.8812H162.839C165.305 45.8812 165.205 43.5313 165.205 41.8188V13.2124C165.205 11.3374 164.942 9.18747 161.074 9.18745H155.717V3.07488H179.775L213.422 33.3938Z" fill="white"/>
<path d="M271.76 9.17505H267.692C266.753 9.17506 266.127 10.0687 266.928 11.05C266.928 11.0504 278.277 24.6073 278.388 24.7562C278.494 24.8999 278.588 24.9312 278.732 24.8C278.876 24.6688 290.367 11.175 290.455 11.05C290.59 10.872 290.672 10.6588 290.69 10.4358C290.708 10.2127 290.662 9.98907 290.556 9.7916C290.451 9.59414 290.291 9.43098 290.095 9.32168C289.9 9.2124 289.677 9.1616 289.453 9.17505H285.279V3.07488H312.936V9.18745H306.758C304.518 9.18746 303.629 9.59999 301.921 11.4999L283.301 32.7124C283.119 32.975 283.038 33.2951 283.076 33.6124V43.2624C283.079 43.7054 283.125 44.147 283.213 44.5811C283.334 44.8617 283.514 45.1124 283.743 45.3154C283.971 45.5185 284.241 45.6691 284.534 45.7563C285.094 45.8302 285.659 45.8655 286.224 45.8624H292.539V51.9749H258.98V45.8624L264.963 45.8686C265.532 45.8686 266.101 45.8333 266.665 45.7625C266.959 45.6746 267.229 45.5238 267.458 45.3209C267.687 45.1181 267.869 44.8678 267.992 44.5876C268.078 44.1533 268.123 43.7114 268.124 43.2686V33.6124C268.124 33.2875 268.124 33.2812 267.71 32.7687C267.297 32.2562 250.086 12.7687 249.303 11.8937C248.327 10.8313 246.612 9.18749 244.002 9.18745H238.025V3.07488H271.76V9.17505Z" fill="white"/>
</svg>
