<svg width="394" height="55" viewBox="0 0 394 55" fill="none" xmlns="http://www.w3.org/2000/svg">
<g clip-path="url(#clip0_29_7094)">
<path d="M99.9324 4.104H53.1592V50.8971H99.9324V4.104Z" fill="white"/>
<path d="M93.6298 22.6893H81.4388V10.4932H71.6529V22.6893H59.5449V32.4793H71.6529V44.5925H81.4388V32.4793H93.6298V22.6893Z" fill="#1E1E1E"/>
<path d="M46.7733 4.10449H0V50.8977H46.7733V4.10449Z" fill="white"/>
<path d="M40.3876 10.4937H28.2796H18.4937H6.38574V19.8689H18.4937V44.5929H28.2796V19.8689H40.3876V10.4937Z" fill="#1E1E1E"/>
<path d="M112.704 16.9643H129.374V50.9806H142.891V16.9643H159.561V4.10449H112.704V16.9643Z" fill="white"/>
<path d="M179.464 4.10449H165.946V50.8977H179.464V4.10449Z" fill="white"/>
<path d="M216.037 22.5237L204.84 20.6984C203.099 20.4496 201.275 19.8688 201.275 17.9606C201.275 15.7205 203.845 14.476 207.578 14.476C211.807 14.476 215.456 16.0524 216.7 19.205L230.3 14.6419C227.066 6.51117 217.032 3.44141 208.407 3.44141C198.04 3.44141 186.844 7.9216 186.844 18.4584C186.844 27.0039 194.225 30.6544 202.933 32.0649L213.383 33.7243C216.617 34.222 218.026 35.6325 218.026 37.2088C218.026 39.5319 214.793 40.4445 210.645 40.4445C204.592 40.4445 200.943 38.2874 199.118 34.0561L185.518 38.6192C189.333 47.2477 199.118 51.4791 209.9 51.4791C220.68 51.4791 232.374 47.2477 232.374 35.9643C232.54 29.0781 227.979 24.432 216.037 22.5237Z" fill="white"/>
<path d="M267.704 22.5237L256.507 20.6984C254.766 20.4496 252.942 19.8688 252.942 17.9606C252.942 15.7205 255.512 14.476 259.244 14.476C263.474 14.476 267.123 16.0524 268.367 19.205L281.967 14.6419C278.733 6.51117 268.698 3.44141 260.073 3.44141C249.707 3.44141 238.511 7.9216 238.511 18.4584C238.511 27.0039 245.892 30.6544 254.6 32.0649L265.05 33.7243C268.283 34.222 269.693 35.6325 269.693 37.2088C269.693 39.5319 266.46 40.4445 262.312 40.4445C256.259 40.4445 252.61 38.2874 250.785 34.0561L237.185 38.6192C241 47.2477 250.785 51.4791 261.567 51.4791C272.347 51.4791 284.041 47.2477 284.041 35.9643C284.124 29.0781 279.562 24.432 267.704 22.5237Z" fill="white"/>
<path d="M316.218 3.44141C299.549 3.44141 288.685 13.3144 288.685 27.5018C288.685 41.689 299.549 51.5621 316.218 51.5621C332.97 51.5621 343.751 41.689 343.751 27.5018C343.751 13.3144 332.97 3.44141 316.218 3.44141ZM316.218 39.6978C307.51 39.6978 302.948 34.1391 302.948 27.5018C302.948 20.8644 307.593 15.3056 316.218 15.3056C324.925 15.3056 329.487 20.8644 329.487 27.5018C329.487 34.1391 324.925 39.6978 316.218 39.6978Z" fill="white"/>
<path d="M346.985 4.10449V16.9643H363.572V50.9806H377.09V16.9643H393.759V4.10449H346.985Z" fill="white"/>
</g>
<defs>
<clipPath id="clip0_29_7094">
<rect width="394" height="55" fill="white"/>
</clipPath>
</defs>
</svg>
