<svg width="116" height="32" viewBox="0 0 116 32" fill="none" xmlns="http://www.w3.org/2000/svg">
<g clip-path="url(#clip0_29_6353)">
<path fill-rule="evenodd" clip-rule="evenodd" d="M33.6367 4.57045C33.6367 4.57045 34.2715 5.06688 34.2715 7.2684C34.2715 9.46876 34.2715 18.2714 34.2715 19.7619C34.2715 21.2535 34.6955 21.6792 35.5411 21.6792C36.3879 21.6792 39.5607 21.6792 39.5607 21.6792C39.5607 21.6792 38.8557 20.8278 38.8557 19.6215C38.8557 18.414 38.8557 8.61623 38.8557 6.91231C38.8557 5.2084 38.5734 4.49853 37.5861 4.49853C36.5987 4.49853 33.6367 4.57045 33.6367 4.57045Z" fill="white"/>
<path fill-rule="evenodd" clip-rule="evenodd" d="M41.8164 4.49854C41.8164 4.49854 42.4512 4.99499 42.4512 6.41473C42.4512 7.83562 42.4512 13.7987 42.4512 16.9943C42.4512 20.1887 45.1309 22.2476 48.7278 22.2476C51.9709 22.2476 53.1702 20.5437 53.1702 20.5437C53.1702 20.5437 53.3822 21.75 54.5101 21.75C55.638 21.75 58.3177 21.6792 58.3177 21.6792C58.3177 21.6792 57.6126 20.6144 57.6126 19.4081C57.6126 18.2006 57.6126 4.49854 57.6126 4.49854H52.3948C52.3948 4.49854 53.0296 5.42184 53.0296 6.69891C53.0296 7.97713 52.9582 13.9414 52.9582 15.5027C52.9582 17.0639 52.3948 18.9105 49.9259 18.9105C47.4582 18.9105 47.1056 16.4259 47.1056 15.5027C47.1056 14.5794 47.1056 6.98308 47.1056 6.1317C47.1056 5.28033 46.6125 4.4278 45.9777 4.4278C45.3429 4.4278 41.8164 4.49854 41.8164 4.49854Z" fill="white"/>
<path fill-rule="evenodd" clip-rule="evenodd" d="M60.4326 4.49858C60.4326 4.49858 61.3497 5.1377 61.3497 6.84162C61.3497 8.54553 61.3497 17.5616 61.3497 19.2655C61.3497 20.9694 60.6446 21.6793 60.6446 21.6793H65.5099C65.5099 21.6793 64.8751 20.8986 64.8751 19.2655C64.8751 17.6335 64.8751 9.753 64.8751 9.753C64.8751 9.753 66.8497 13.7988 68.049 15.7869C69.2472 17.775 70.306 17.9176 71.2933 17.9872C72.2807 18.058 72.7023 17.775 72.7023 17.775C72.7023 17.775 75.0998 11.0301 76.2991 9.11273C76.1586 9.2554 76.2991 18.058 76.2991 19.5496C76.2991 21.0401 75.5941 21.75 75.5941 21.75H80.9536C80.9536 21.75 80.2485 20.6144 80.2485 19.4081C80.2485 18.2007 80.2485 8.04909 80.2485 6.69895C80.2485 5.35112 80.9536 4.49858 80.9536 4.49858C80.9536 4.49858 76.6517 4.5705 75.6643 4.5705C74.677 4.5705 74.1839 5.06694 73.6897 6.41476C73.1966 7.7649 71.2219 12.8047 71.2219 12.8047C71.2219 12.8047 68.6838 7.55147 68.1193 6.27441C67.5548 4.99502 67.132 4.42783 66.0744 4.42783C65.0168 4.42783 60.4326 4.49858 60.4326 4.49858Z" fill="white"/>
<path fill-rule="evenodd" clip-rule="evenodd" d="M88.7102 7.40876C88.7102 7.40876 90.2609 7.33801 90.7551 7.33801C91.2482 7.33801 93.2229 7.90637 93.2229 9.61028C93.2229 13.1596 88.7102 13.6572 88.7102 13.6572V7.40876ZM83.209 4.42778C83.209 4.42778 89.4855 4.42778 92.3058 4.42778C95.1273 4.42778 97.3831 6.55739 97.3831 9.89447C97.3831 15.3611 88.7102 16.4967 88.7102 16.4967C88.7102 16.4967 88.7102 18.769 88.7102 20.1179C88.7102 21.4669 88.1457 21.6792 87.5811 21.6792C87.0178 21.6792 83.209 21.6792 83.209 21.6792C83.209 21.6792 83.9855 20.6851 83.9855 19.5496C83.9855 18.414 83.9855 7.48067 83.9855 6.41471C83.9855 5.35107 83.209 4.42778 83.209 4.42778Z" fill="white"/>
<path fill-rule="evenodd" clip-rule="evenodd" d="M115.365 19.6924C115.365 18.4849 115.365 4.49869 115.365 4.49869H109.935C109.935 4.49869 110.57 5.705 110.57 6.77096C110.57 7.05978 110.57 7.97959 110.57 9.18359C108.381 9.43297 106.255 10.5279 103.942 12.0903C103.942 8.28698 103.942 4.49869 103.942 4.49869H98.5125C98.5125 4.49869 99.1461 5.705 99.1461 6.77096C99.1461 7.5017 99.1461 12.1762 99.1461 15.6118C91.3742 21.4868 80.6287 29.2536 60.6446 29.4183C34.8356 29.6306 27.4311 15.2198 27.4311 15.2198C27.4311 15.2198 31.0982 13.7281 31.0982 9.82386C31.0982 6.62829 28.6293 4.42794 26.233 4.42794C23.8343 4.42794 18.6165 4.57061 18.6165 4.57061L18.1937 0.0968133C18.1937 0.0968133 14.8089 0.451744 9.09686 0.451744C3.38482 0.451744 0.422813 0.168737 0.422813 0.168737L0 5.49273C1.69241 4.78287 6.83993 4.42794 6.83993 4.42794C6.83993 4.42794 6.76965 9.68118 6.76965 14.2257C6.76965 18.7691 5.64176 21.7501 5.64176 21.7501L13.0462 21.6794C13.0462 21.6794 11.8469 18.4849 11.8469 13.9415C11.8469 10.5337 11.8469 4.42794 11.8469 4.42794C11.8469 4.42794 16.6419 4.71095 17.3469 5.1378C17.7882 5.40342 18.052 5.84768 18.052 6.34528C18.052 6.84172 18.052 18.5557 18.052 19.5497C18.052 20.5438 17.4184 21.7501 17.4184 21.7501L23.1293 21.6794C23.1293 21.6794 22.5659 20.7561 22.5659 19.9754C22.5659 19.1948 22.4945 16.3553 22.4945 16.3553L23.2007 16.2834C23.2007 16.2834 33.566 31.9028 60.2921 31.9028C79.0503 31.9028 90.8534 25.2751 99.2026 19.9546C99.3477 21.133 99.7878 21.7501 100.416 21.7501C101.192 21.7501 104.577 21.7501 104.577 21.7501C104.577 21.7501 103.942 20.8987 103.942 19.6924C103.942 19.3456 103.942 17.9409 103.942 16.1187C106.199 14.3951 108.536 13.0716 110.57 12.3792C110.57 15.1757 110.57 18.1358 110.57 19.0533C110.57 20.828 111.064 21.7501 111.84 21.7501C112.615 21.7501 116 21.7501 116 21.7501C116 21.7501 115.365 20.8987 115.365 19.6924ZM22.5659 7.40891C22.5659 7.40891 23.6938 7.40891 24.4691 7.40891C25.2456 7.40891 27.0786 7.97727 27.0786 9.68119C27.0786 13.1598 22.4945 13.5855 22.4945 13.5855L22.5659 7.40891Z" fill="white"/>
</g>
<defs>
<clipPath id="clip0_29_6353">
<rect width="116" height="32" fill="white"/>
</clipPath>
</defs>
</svg>
