<svg width="55" height="55" viewBox="0 0 55 55" fill="none" xmlns="http://www.w3.org/2000/svg">
<path d="M27.3623 0C42.5203 0.00026044 54.7236 12.2043 54.7236 27.3623C54.7234 42.5201 42.5201 54.7234 27.3623 54.7236C12.2043 54.7236 0.000258464 42.5203 0 27.3623C0 12.2041 12.2041 0 27.3623 0ZM36.1719 47.8281C36.0077 48.2111 35.7345 48.5389 35.2969 48.5391C34.8591 48.5391 34.5851 48.2112 34.4209 47.8281L27.7451 32.8887C27.6358 32.7247 27.5808 32.5608 27.417 32.5605C27.2528 32.5605 27.1426 32.7245 27.0879 32.8887L20.4121 47.8281C20.2479 48.2112 19.9739 48.5391 19.5361 48.5391C19.0986 48.5389 18.8253 48.2111 18.6611 47.8281L4.15918 18.6611C3.11951 21.3972 2.57227 24.2979 2.57227 27.3623C2.57253 40.9881 13.7365 52.2061 27.3623 52.2061C40.9879 52.2058 52.151 40.9879 52.2607 27.3623C52.2607 24.2979 51.7135 21.3972 50.6738 18.6611L36.1719 47.8281ZM30.2617 25.8291C30.0976 26.2121 29.8791 26.2676 29.5508 26.2676H25.1729C24.8993 26.2676 24.626 26.1574 24.5166 25.8291L15.4326 5.63672C11.7662 7.66146 8.75633 10.5622 6.5127 14.0098L19.0986 39.4004C19.208 39.5645 19.2628 39.7293 19.4268 39.7295C19.5909 39.7295 19.7002 39.5646 19.7549 39.4004L24.3525 28.5654C24.5167 28.1827 24.7353 28.1279 25.0635 28.1279H29.4414C29.7696 28.1279 29.9882 28.1828 30.1523 28.5654L34.9131 39.4004C35.0225 39.5646 35.078 39.7295 35.2422 39.7295C35.4062 39.7293 35.5156 39.5645 35.5703 39.4004L48.2656 14.0098C46.022 10.5622 42.9574 7.66146 39.3457 5.63672L30.2617 25.8291ZM27.3623 2.46289C24.5167 2.46289 21.7799 2.95545 19.2627 3.88574L27.0332 21.3975C27.1426 21.5616 27.1982 21.7256 27.3623 21.7256C27.526 21.7254 27.5812 21.616 27.6904 21.3975L35.4609 3.88574C32.9438 2.95551 30.2077 2.46295 27.3623 2.46289Z" fill="white"/>
</svg>
